<svg width="709" height="48" viewBox="0 0 709 48" fill="none" xmlns="http://www.w3.org/2000/svg">
<g clip-path="url(#clip0_28_643)">
<path opacity="0.87" d="M213.297 28.0283C213.06 28.1962 213.229 28.3641 213.502 28.9352C213.532 29.0113 213.577 29.0805 213.635 29.139C213.693 29.1974 213.761 29.2437 213.837 29.2752C213.914 29.3068 213.995 29.3228 214.078 29.3225C214.16 29.3221 214.242 29.3053 214.317 29.2731L215.005 29.0791C215.054 29.1612 215.082 29.2541 215.087 29.3495C215.091 29.4449 215.072 29.5399 215.031 29.6263C214.895 29.9468 214.93 30.4831 214.692 31.9285C214.454 33.3739 214.163 33.9647 213.857 36.3868C213.551 38.8089 216.628 40.1693 217.104 40.1366C217.58 40.1039 219.653 41.5493 220.096 41.7847C220.538 42.0202 221.25 42.7941 221.455 42.7592C221.66 42.7243 221.318 43.3653 221.761 43.4983C222.169 43.6519 222.566 43.831 222.95 44.0346C222.82 45.0941 222.461 46.8011 221.657 46.9646C220.503 47.2001 220.23 46.6616 219.992 46.7946C219.754 46.9276 220.503 47.1325 220.503 47.1325C220.503 47.1325 218.741 47.4682 218.52 47.5685C218.3 47.6688 220.111 47.6361 220.765 47.5685C221.419 47.5009 220.56 47.8781 220.706 47.9718C221.036 48.1789 222.369 47.2655 222.761 47.2655C223.153 47.2655 223.862 47.7015 224.036 47.3679C224.18 47.0845 223.268 47.3679 223.005 46.6267C223.005 46.6267 225.737 45.6675 226.31 45.7547C226.883 45.8419 226.823 46.7946 227.191 46.6267L226.75 45.0461C226.75 45.0461 227.398 44.9785 227.499 44.9785H227.601C227.387 44.9938 227.173 44.9519 226.982 44.8571C226.79 44.7623 226.628 44.6183 226.512 44.4401C226.341 44.1828 226.292 43.6552 226.292 43.1974C226.441 43.0368 226.624 42.9104 226.827 42.8268C227.339 42.6589 227.541 43.4329 230.226 41.6822C232.912 39.9316 232.429 38.0502 232.266 37.479C232.103 36.9078 231.96 37.2436 232.097 36.7378C232.233 36.232 232.707 36.1012 232.877 35.5627C233.046 35.0242 232.573 35.1572 233.352 34.4313C234.132 33.7053 233.793 33.0731 233.793 33.0731C233.793 33.0731 233.93 32.637 233.828 32.467C233.742 32.2998 233.674 32.1245 233.623 31.9438C233.623 31.9438 233.725 31.1567 233.793 30.8537C233.812 30.7689 233.802 30.6803 233.765 30.6015C233.728 30.5227 233.666 30.4582 233.588 30.4177C233.588 30.4177 233.894 29.6787 233.998 29.4432C234.101 29.2078 233.522 29.2077 233.692 28.9723C233.861 28.7368 233.555 28.4665 233.555 28.4665C233.134 27.9533 232.642 27.5006 232.095 27.1214C231.143 26.4499 231.006 27.2566 231.143 26.7857C231.279 26.3148 230.326 26.0793 229.16 26.415C227.995 26.7508 227.902 29.1053 227.698 30.1495C227.493 31.1938 225.556 31.9307 225.556 31.9307C225.556 31.9307 223.484 31.9656 222.499 31.9307C221.514 31.8958 220.902 31.2243 220.563 31.0914C220.223 30.9584 219.032 28.4752 218.49 27.7602C217.948 27.0451 217.774 27.3241 216.619 26.4826C216.427 26.3395 216.218 26.2208 215.996 26.1295C215.996 26.1295 216.348 25.6411 216.144 25.4754C215.939 25.3097 215.736 25.0045 215.635 25.3272C215.533 25.6498 215.293 25.3272 215.293 25.3272C215.293 25.3272 215.091 24.9369 214.914 25.3272C214.738 25.7174 214.342 25.3272 214.342 25.3272L214.071 25.0045L213.833 25.5779L213.527 25.1724V25.846C213.459 25.8291 213.388 25.835 213.325 25.8626C213.261 25.8903 213.209 25.9382 213.176 25.9986C213.029 26.2166 213.018 26.4848 212.881 26.753C212.745 27.0211 212.535 26.753 212.535 26.753L212.756 27.0887C212.727 27.102 212.697 27.1137 212.667 27.1236C212.363 27.2239 211.989 27.7623 211.989 27.7623L213.344 27.673C213.386 27.819 213.386 27.9629 213.297 28.0283ZM225.578 43.5288C225.516 44.0791 225.398 44.6218 225.226 45.1486C224.988 45.6522 223.29 45.5672 223.29 45.5672C223.254 45.868 224.495 45.7852 224.495 45.7852C224.495 45.7852 223.021 46.1907 222.992 46.5504C222.882 46.0185 223.376 44.911 223.724 44.2221C223.961 44.2129 224.195 44.1574 224.411 44.0586C224.951 43.8231 225.325 43.5157 225.572 43.5288H225.578Z" fill="#BEEDE8"/>
</g>
<g clip-path="url(#clip1_28_643)">
<path opacity="0.87" d="M481.662 6.08216C481.556 6.05728 481.444 6.06556 481.342 6.10589C480.757 6.28069 470.296 7.21083 469.547 7.21083C468.798 7.21083 462.305 7.09429 461.605 6.86122C461.425 6.80295 460.717 6.8159 459.702 6.86122L456.119 6.65836C454.187 6.47492 452.017 6.24185 449.7 6.31522L447.396 6.19221C444.058 5.58579 442.469 7.20004 439.293 6.39723C436.911 5.79297 435.395 5.32898 434.687 5.10239C434.869 4.56287 434.687 3.83775 434.446 4.12909C434.33 4.278 433.983 4.37943 433.58 4.4528C433.396 4.31684 433.184 4.1593 432.954 3.99529C433.585 3.17522 434.254 2.18898 434.334 1.9149C434.466 1.43581 434.013 0.499204 433.634 0.255341C433.418 0.125856 432.805 -0.124485 432.677 0.0826905C432.486 0.384822 433.197 0.99772 433.151 1.43581C433.106 1.8739 431.707 2.48248 431.202 2.73066C431.165 2.74987 431.13 2.77302 431.098 2.79972C430.819 2.62611 430.51 2.50607 430.186 2.44579C429.544 2.41225 428.901 2.41225 428.259 2.44579H428.493L427.626 2.91194H427.146C426.685 2.63287 426.25 2.31366 425.846 1.95806C425.511 1.6732 426.528 0.898447 426.321 0.604949C426.18 0.408563 425.567 0.650268 425.363 0.779752C424.982 1.02362 424.532 1.95806 424.662 2.43932C424.742 2.73281 425.513 3.84639 426.178 4.69451L426.043 4.82615C425.821 4.69425 425.588 4.57953 425.348 4.48302C424.482 4.13341 424.239 4.24995 423.713 3.72769C423.187 3.20543 422.663 3.43635 422.663 3.72769C422.663 4.01903 422.013 4.65782 422.663 5.76276C422.826 6.07155 423.056 6.34054 423.336 6.55056C423.616 6.76058 423.939 6.90644 424.283 6.97776C424.402 7.74939 424.402 8.5347 424.283 9.30633C424.109 10.2365 422.117 13.029 421.424 13.7865C420.731 14.544 421.073 15.3576 421.131 15.7072C421.19 16.0568 422.533 16.9869 422.533 16.9869C422.533 16.9869 423.758 17.5674 424.109 17.6861C424.46 17.8048 426.095 17.3365 426.275 17.0387C426.455 16.7409 427.328 16.9222 427.737 17.097C428.146 17.2718 428.32 17.5027 429.08 17.2718C429.84 17.0409 430.189 16.7474 430.422 16.7474C430.656 16.7474 430.247 16.8057 430.89 16.9805C431.534 17.1553 431.882 16.9805 431.941 17.2135C431.999 17.4466 431.999 17.9689 432.175 17.9689C432.595 18.0074 433.008 18.1055 433.4 18.2602C434.596 18.8882 435.269 19.8313 435.911 23.0317C436.552 26.2321 438.189 29.316 438.832 30.1296C439.246 30.6562 440.246 32.2877 442.923 32.6718C442.908 33.0754 442.884 33.4142 442.861 33.6214C442.744 34.6098 442.451 35.4256 442.568 36.2413C442.685 37.0571 443.27 38.5677 443.218 38.8591C443.166 39.1504 442.867 42.9896 441.115 44.9686C439.363 46.9475 439.75 46.3713 439.369 46.9367C439.406 46.8979 440.779 47.5842 443.231 47.1202L443.8 45.2599C444.114 45.1909 444.634 45.9591 444.97 45.7822L445.319 43.281L445.494 40.2596C445.494 40.2596 445.377 37.9894 445.494 37.8728C445.557 37.8124 446.794 35.0436 447.954 32.1215C448.31 32.0158 448.673 31.9057 449.057 31.7633C449.306 31.6748 449.546 31.5928 449.784 31.5151C450.002 32.1137 450.154 32.7337 450.239 33.3646C450.326 34.5429 450.456 35.4579 450.672 35.896C450.889 36.3341 452.687 38.9173 452.687 38.9173C452.687 38.9173 453.756 42.1026 452.994 43.281C451.796 45.1304 451.619 46.0304 451.619 46.0304H455.42L455.535 44.6341V43.9349C455.535 43.4558 456.323 43.8917 456.453 43.6737C456.583 43.4558 455.052 40.7064 454.878 39.0037C454.742 37.6808 454.313 32.7215 454.129 30.5764C457.835 30.2656 459.771 31.6424 463.126 32.0654C467.739 32.6481 465.928 33.2891 466.745 33.1121C467.561 32.9351 475.33 29.5059 475.856 29.3311H475.869C476.363 29.165 475.455 29.3311 476.38 29.9181C476.928 30.2265 477.461 30.5629 477.974 30.926C478.297 31.1828 478.509 31.4461 478.483 31.7201C478.425 32.3676 477.957 33.9904 478.249 34.34C478.269 34.3623 478.294 34.3787 478.322 34.3874C478.351 34.3962 478.381 34.397 478.409 34.3897L478.21 37.7735C478.21 37.7735 476.878 41.8351 474.942 43.4903C472.289 45.7606 472.166 46.7274 472.166 46.7274H476.194C476.194 46.7274 476.326 45.0247 476.844 45.0679C477.361 45.111 477.493 45.6354 477.632 45.2427C477.771 44.8499 482.362 35.5097 483.544 34.899C484.344 34.4868 483.902 33.753 483.64 32.9157C484.09 32.6999 484.586 32.4388 484.653 32.2381C484.663 32.2146 484.676 32.1921 484.69 32.1712C484.887 32.5855 485.076 32.9589 485.238 33.2286C485.938 34.3918 486.104 34.7393 486.104 34.7393C486.104 34.7393 487.33 37.9958 487.506 38.408C487.681 38.8202 487.915 44.8672 486.397 46.0304C484.879 47.1936 484.82 48.0093 484.82 48.0093H489.024C489.024 48.0093 489.55 47.1353 489.492 46.7296C489.44 46.4354 489.362 46.1465 489.258 45.8663H490.016C490.016 45.8663 491.036 35.7795 490.988 34.3854C490.941 32.9912 491.77 34.558 491.378 33.397C490.986 32.2359 490.345 31.2389 489.819 29.6721C489.548 28.8607 489.355 27.514 489.24 26.312C489.422 26.0602 489.577 25.7904 489.704 25.507C490.072 24.4862 491.155 17.466 491.233 15.4676C491.46 16.2032 491.545 16.9752 491.482 17.7423C491.248 19.9241 492.156 22.4555 492.418 24.2014C492.68 25.9473 492.069 26.9939 492.069 26.9939L493.206 31.0943L493.381 33.3646L493.994 32.5014L494.077 33.0646L495.01 34.3357L494.17 30.6476L494.568 32.1474L495.001 33.8113C494.81 32.4081 494.792 30.9868 494.949 29.5793C495.214 27.2659 494.423 24.3848 493.548 22.1167C492.673 19.8485 493.022 18.7112 492.849 14.2613C492.675 9.81131 491.008 8.41288 489.344 6.98639C487.902 5.7455 482.975 5.99152 481.662 6.08216Z" fill="#BEEDE8"/>
</g>
<g clip-path="url(#clip2_28_643)">
<path opacity="0.87" d="M16.7397 43.3785C16.7397 43.3785 16.9312 42.2557 17.9298 42.449C18.9284 42.6423 21.0008 41.7975 21.0008 41.7975L19.6192 41.1459V40.8745L18.8509 40.6421L14.7017 37.606L15.6249 37.7992C15.4147 37.4751 15.1701 37.175 14.8954 36.9045C14.5101 36.5505 10.6321 35.0476 7.86881 35.2822C5.10554 35.5167 5.68015 33.649 5.68015 33.649L6.21817 30.2046C6.21817 30.2046 6.64858 28.2304 5.57254 27.0099C4.4965 25.7894 3.34514 25.9827 2.88459 26.0608C2.5561 26.1863 2.24618 26.3565 1.9635 26.5669C1.10267 27.1294 0.00511169 27.959 0.00511169 27.959C0.151453 28.4824 1.39105 28.1262 2.14428 28.2804C2.21184 28.2921 2.27814 28.3103 2.34227 28.3347C2.51444 28.402 2.91257 28.3217 3.07613 28.4042C3.80353 28.7712 4.53524 29.8571 3.84442 31.4447C2.76838 33.9205 2.15504 35.5493 2.03883 37.6429C1.92262 39.7365 4.03596 41.0895 4.45777 41.8257C4.87957 42.5619 6.22463 44.0735 6.91544 45.3527C7.22409 45.8654 7.65458 46.2924 8.16795 46.5949L8.10554 46.9554C8.10554 46.9554 7.3889 47.1096 7.0295 46.9554C6.67011 46.8012 6.15791 46.9554 6.10626 47.2117C6.05461 47.468 5.34227 47.2703 5.35519 47.7286C5.35519 47.8458 8.25619 47.9349 8.70167 47.987C9.14715 48.0391 9.19665 47.8958 9.31501 47.7264C9.46566 47.5092 8.97283 47.8306 8.75117 47.4832C8.68859 47.3012 8.68184 47.1044 8.7318 46.9185C9.27843 47.1987 9.78416 47.3789 10.023 47.4832C10.1427 47.5266 10.2736 47.5266 10.3932 47.4832C10.4685 47.5874 10.7504 47.4419 11.0216 47.4832C11.4649 47.5613 12.9585 47.8828 13.3997 47.7807C13.8408 47.6786 13.6837 47.3159 13.8903 46.9554C14.0969 46.5949 13.9893 47.1596 14.2971 46.9554C14.6048 46.7513 13.9893 46.6427 13.5804 46.2474C13.5437 46.2099 13.5132 46.1666 13.49 46.1193C14.0991 46.1041 14.7813 46.0824 15.1687 45.9021C15.8939 45.5481 16.7397 43.3785 16.7397 43.3785ZM12.3753 46.9576C12.1601 47.0423 11.8954 46.8816 11.6285 46.7252C11.8386 46.5538 12.0585 46.395 12.287 46.2496C12.3915 46.2038 12.5028 46.176 12.6163 46.1671C12.6572 46.5298 12.6206 46.862 12.3753 46.9576Z" fill="#BEEDE8"/>
</g>
<g clip-path="url(#clip3_28_643)">
<path opacity="0.87" d="M138.126 41.9645C137.667 41.6677 137.397 41.0898 137.159 40.829C136.709 40.3388 135.802 38.5241 135.802 38.5241C135.802 38.5241 135.671 37.1749 135.411 36.5767C135.434 36.5478 135.451 36.5151 135.462 36.48C135.656 35.9314 136.868 34.7845 137.159 34.038C137.449 33.2914 137.545 32.1424 137.159 32.1424C137.025 32.1424 136.665 32.3785 136.246 32.6888C136.226 32.4234 136.15 32.2391 135.995 32.2391C135.743 32.2391 134.649 33.1048 133.915 33.7097C133.5 33.0351 132.979 32.4527 132.315 32.338C130.567 32.0412 129.31 29.0482 126.2 27.8407C123.09 26.6331 115.428 25.248 114.758 25.248C114.087 25.248 102.561 23.3029 100.187 24.2495L97.566 25.1985C96.9233 25.6828 96.3253 26.227 95.7795 26.8243L95.6507 26.6286C96.0547 26.5027 96.1989 26.1497 96.1355 26.0395C96.0329 25.8596 95.583 25.7044 95.3821 25.7337C95.0042 25.7854 94.2901 26.5702 94.6308 27.1031C94.7762 27.2978 94.9782 27.4396 95.2073 27.5079C94.5369 28.3826 93.9822 29.426 93.9822 30.4851C93.9822 33.1835 94.5631 35.8707 95.2401 37.456C95.9171 39.0413 96.4784 41.3282 96.2753 41.7149L96.1792 42.4637C96.3395 42.738 96.4853 43.021 96.616 43.3115C96.7623 43.66 97.0047 43.9096 96.5679 45.8052C96.1312 47.7009 97.1991 47.4018 97.6337 47.6042C98.0683 47.8066 98.2627 47.6042 98.2627 47.6042L97.9242 46.9071L98.5051 47.6042C98.5051 47.6042 98.9899 47.6042 98.6951 47.1544C98.4003 46.7047 98.7475 43.9613 98.6951 43.0147C98.6427 42.068 99.0838 41.4181 99.5184 40.766C99.953 40.1139 99.3241 39.4685 99.5184 39.021C99.6132 38.8368 99.7267 38.6634 99.8569 38.5038C99.8569 39.8688 99.6626 40.5119 99.5905 40.6378C99.5184 40.7637 101.408 45.6523 101.408 46.1515C101.408 46.6507 103.443 46.9993 103.443 46.9993H104.024L103.939 46.8531L103.587 46.2527C103.587 46.2527 104.188 47.033 104.212 46.6035C104.24 46.0481 102.231 44.157 102.465 42.0612C102.622 40.6963 103.17 39.1177 103.439 37.6179C104.127 37.8157 107.003 38.6455 108.652 39.102C109.331 39.2909 109.803 39.4168 109.827 39.4078C110.281 39.2639 115.494 39.5675 117.093 39.4078C117.65 39.3912 118.207 39.441 118.752 39.5562C118.835 40.7165 118.934 42.2546 118.934 43.0979C118.929 44.0891 118.833 45.0776 118.648 46.0504L118.606 46.3C118.606 46.3 119.525 46.9476 120.205 46.997C120.884 47.0465 120.495 46.5316 120.495 46.5316L120.864 46.8419C120.958 46.6305 121.007 46.4014 121.01 46.1692C121.013 45.9369 120.97 45.7066 120.882 45.4927C120.836 45.3645 120.932 44.9957 121.113 44.492C121.29 44.8541 121.458 45.1149 121.609 45.1936C122.19 45.4927 121.465 46.5428 121.609 46.9925C121.753 47.4423 123.256 47.991 123.498 47.991C123.684 47.991 123.583 47.5772 123.529 47.3861C123.592 47.5794 123.747 47.9955 123.891 47.883C124.035 47.7706 123.498 44.3998 123.498 43.9996C123.561 43.0566 123.773 42.1306 124.127 41.2584C124.155 41.1955 124.179 41.1348 124.206 41.0741C124.509 41.1842 124.807 41.3118 125.097 41.4563C125.412 41.6269 125.768 41.7024 126.124 41.6742C126.479 41.6459 126.819 41.5151 127.106 41.2967C127.165 41.2535 127.222 41.207 127.276 41.1573C126.986 41.9555 128.587 41.9555 129.165 42.5537C129.744 43.1518 130.085 42.7538 130.476 43.2036C130.867 43.6533 133.042 44.3998 133.673 44.4493C134.304 44.4988 134.787 44.4493 135.61 44.4493C136.152 44.4244 136.675 44.2333 137.111 43.9006C137.111 43.9006 137.353 44.899 137.79 44.0513C138.05 43.5453 139 42.1309 139 42.1309C138.7 42.1411 138.402 42.0844 138.126 41.9645ZM118.724 37.9169L118.619 37.7595L118.724 37.9169Z" fill="#BEEDE8"/>
</g>
<g clip-path="url(#clip4_28_643)">
<path d="M309.884 38.3648C310.229 37.579 309.713 35.4171 309.53 34.717C309.523 34.5692 309.503 34.4223 309.471 34.278C309.333 33.4462 308.646 32.8931 308.128 32.656C307.611 32.419 306.371 32.656 306.371 32.656L306.578 32.4366C306.187 32.4356 305.797 32.4583 305.408 32.5046C304.993 32.5748 304.535 33.163 304.535 33.163L304.753 32.6495L303.721 33.3364L303.635 33.444L303.168 34.0278V33.4308L302.657 34.0893C302.657 34.0893 302.622 34.1946 302.57 34.3373C302.467 34.6182 302.302 35.0484 302.21 35.0945C302.072 35.1625 301.005 35.821 300.487 35.9592C299.97 36.0975 298.042 35.6827 297.431 35.1976C296.82 34.7126 296.638 32.4629 296.638 32.4629C296.638 32.4629 296.617 32.3927 296.58 32.2851C296.473 31.9658 296.343 31.6547 296.191 31.3545C296.013 31.0773 295.802 30.8223 295.564 30.5951C295.564 30.5951 296.053 30.7005 296.261 30.5951C296.468 30.4898 295.641 29.366 295.641 29.366L296.296 28.8963L295.126 28.758L295.781 27.755L294.361 28.4354V27L293.827 28.0535L293.794 27.1536L293.242 28.1237L292.932 27.6036C292.933 27.8235 292.874 28.0395 292.759 28.2269C292.589 28.4464 292.104 29.1334 292.209 29.355C292.367 29.5789 292.56 29.7766 292.779 29.9411C292.698 29.965 292.623 30.0067 292.56 30.0633C292.497 30.1198 292.447 30.1898 292.414 30.2681C292.414 30.2681 292.726 30.2549 293.069 30.2681C293.069 30.2681 292.445 32.3773 292.445 32.6824C292.456 32.7868 292.489 32.8874 292.543 32.9773C292.597 33.0672 292.67 33.1441 292.757 33.2026L292.94 33.2508C292.772 33.7469 292.536 34.4404 292.412 34.7872C292.205 35.3754 291.344 38.4899 292.894 39.3568C294.444 40.2238 296.75 42.649 297.302 43.2351C297.854 43.8211 297.481 44.4839 297.785 44.7363C297.803 44.751 297.823 44.7642 297.844 44.7758L297.785 44.8548C297.785 44.8548 296.785 47.2845 296.682 47.3547C296.58 47.425 296.302 47.3196 295.89 47.3547C295.477 47.3898 295.442 47.5962 295.442 47.5962C295.442 47.5962 293.696 47.9078 294.228 47.9429C294.795 47.9383 295.362 47.8935 295.922 47.8091C295.874 47.8091 295.807 47.8508 295.957 47.9473C296.165 48.0812 297.095 47.7695 297.232 47.7695C297.37 47.7695 297.418 47.5698 297.433 47.5106H297.466L297.785 47.7015L297.686 47.482C297.935 47.4746 298.179 47.4172 298.405 47.313C298.526 47.2087 298.604 47.0621 298.623 46.9026L298.953 47.313H299.33C298.953 47.313 298.623 46.1607 298.623 46.1607L299.079 45.9983C299.079 45.9983 298.643 45.8579 298.625 45.4782C298.637 45.0987 298.683 44.7212 298.763 44.35C298.884 44.1819 298.99 44.0035 299.079 43.8167C299.079 43.8167 298.402 42.9848 299.079 42.8817C299.756 42.7785 301.605 41.7031 302.085 41.5999C302.566 41.4968 302.638 41.5648 302.638 41.5648C302.638 41.5648 302.981 41.9467 302.948 41.6702C302.915 41.3936 303.36 41.1456 303.36 41.1456L303.498 41.5648L303.945 41.3585V41.8084L304.29 41.5648C304.652 41.6789 305.02 41.7713 305.393 41.8413C305.703 41.8765 305.151 42.9497 305.53 42.6732C305.91 42.3966 306.908 42.1223 306.908 42.1223C306.908 42.1223 306.452 42.9607 306.736 42.8466C308.814 42.0125 308.7 37.6207 308.7 37.6207C308.7 37.6207 309.32 39.5236 309.458 39.28C309.525 39.0878 309.542 38.8813 309.506 38.6808C309.569 38.8345 309.672 38.8476 309.884 38.3648ZM297.601 47.0935L297.625 46.7314L298.005 45.9127L297.968 46.7314L297.601 47.0935Z" fill="#BEEDE8"/>
</g>
<g clip-path="url(#clip5_28_643)">
<path opacity="0.87" d="M276.595 34.8272C276.581 34.8154 276.567 34.8024 276.555 34.7884C276.47 34.6547 276.47 34.6978 276.712 34.5577C276.954 34.4176 276.672 34.1977 276.555 33.8917C276.438 33.5856 276.093 33.4476 276.21 33.1674C276.326 32.8871 275.833 32.2232 275.833 32.0896C275.833 31.9559 275.608 31.6455 275.543 31.3114C275.478 30.9773 275.196 30.5332 275.371 30.3953C275.546 30.2573 275.92 30.4772 276.006 30.6108C276.091 30.7445 276.613 32.1672 276.701 32.0831C276.788 31.999 276.382 30.3888 276.21 29.9426C276.171 29.8213 276.095 29.714 275.992 29.6348C275.888 29.5556 275.763 29.5081 275.631 29.4986C275.533 29.3046 275.412 29.1223 275.27 28.9553C275.045 28.688 274.487 28.5522 273.765 28.8864C273.042 29.2205 273.114 30.5548 273.114 30.6108C273.255 30.9359 273.451 31.2366 273.693 31.5011C273.953 31.7511 274.097 32.0572 273.917 32.0572C273.88 32.061 273.845 32.0736 273.814 32.0939C273.578 32.2639 273.36 32.456 273.164 32.6673L272.701 33.0294C272.701 33.0294 268.942 32.275 267.904 32.1305C267.646 31.2812 267.186 29.837 267.044 29.8046C266.84 29.7594 266.697 30.0375 266.697 30.0375C266.697 30.0375 265.983 27.8819 265.017 28.009C264.608 28.0629 265.017 27.5779 264.454 27.0088C264.214 26.7674 263.57 26.8127 263.332 26.7933C263.094 26.7739 262.54 26 262.09 26.0151C261.791 26.0259 261.623 26.5713 261.623 26.5713C261.623 26.5713 260.351 26.0151 259.912 26.6683C259.544 27.2136 259.804 27.4895 259.804 27.4895C259.675 27.3644 259.507 27.2824 259.326 27.2557C259.144 27.2289 258.959 27.2587 258.797 27.3408C258.33 27.5564 258.705 28.3496 258.559 28.3496C258.413 28.3496 257.716 28.2871 257.63 28.7053C257.601 28.8178 257.597 28.935 257.617 29.0493C257.638 29.1636 257.683 29.2725 257.749 29.3692C257.749 29.3692 257.002 29.8003 257.034 30.5052C257.045 30.7876 257.287 31.6585 257.316 31.8805C257.345 32.1025 256.951 32.6414 257.007 32.9583C257.063 33.2751 257.633 33.7559 257.633 33.7559C257.633 33.7559 257.316 34.659 257.431 34.8186C257.545 34.9781 257.978 35.3639 257.978 35.3639C257.978 35.3639 257.92 36.3361 258.153 36.4762C258.386 36.6163 259.073 36.6551 259.223 36.8922L258.999 38.4012C258.999 38.7892 259.721 39.3173 259.867 39.3453C260.012 39.3733 259.981 39.8174 259.867 40.0135C259.752 40.2097 260.069 41.2918 260.791 41.2358C261.168 41.2223 261.534 41.1073 261.847 40.9038C261.905 41.0338 261.97 41.1605 262.042 41.2832C262.04 41.8589 261.916 42.4281 261.677 42.9559C261.098 44.0682 262.919 42.6218 261.966 43.456C261.013 44.2902 261.271 45.2344 261.271 45.4564C261.271 45.6784 261.589 46.1031 261.589 46.1031C261.589 46.1031 261.56 46.4372 261.85 46.2777C262.068 46.1224 262.247 45.9202 262.37 45.6871C262.254 45.9239 262.178 46.1772 262.146 46.4372C262.146 46.7153 262.262 46.8813 262.35 46.8813C262.437 46.8813 262.522 46.7153 262.87 46.6032C263.166 46.4859 263.448 46.337 263.709 46.1591C263.709 46.1591 263.794 46.6312 264.229 46.4372C264.466 46.3472 264.66 46.179 264.779 45.963C264.779 45.963 264.837 46.3251 265.127 46.2777C265.416 46.2303 267.818 43.8225 267.818 43.8225C267.986 43.9044 268.166 43.9598 268.352 43.9863C268.421 43.9983 268.487 44.0224 268.547 44.0574C268.599 45.6353 268.377 46.0514 268.24 46.1117C268.103 46.1721 267.704 46.0147 267.776 46.3057C267.781 46.3436 267.796 46.3799 267.817 46.4121C267.839 46.4442 267.868 46.4715 267.901 46.492C267.935 46.5124 267.973 46.5257 268.012 46.5307C268.052 46.5358 268.092 46.5326 268.13 46.5213L268.691 47.6508C269.862 47.7629 270.066 48.2845 270.831 47.8103C270.852 47.7953 270.868 47.7742 270.876 47.75C271.647 47.8728 271.475 48.0496 272.156 47.6314C272.264 47.5646 272.112 47.0322 272.271 47.0192C272.43 47.0063 272.271 46.8662 272.271 46.8662C272.271 46.8662 271.23 46.5321 271.055 46.2001C270.956 46.0082 270.97 45.1331 271.001 44.4131C271.11 44.4844 271.229 44.539 271.356 44.5748C271.477 44.5748 271.638 44.1005 271.638 44.1005H272.708C272.932 44.1005 273.722 43.6004 273.982 43.6845C274.242 43.7686 275.4 43.1844 275.552 43.1564C275.658 43.1405 275.765 43.1405 275.871 43.1564C275.871 43.1564 275.9 42.9408 276.277 42.8223C276.654 42.7037 276.537 42.1562 276.537 42.1562L276.824 42.3222C276.824 42.3222 276.912 42.1066 277.087 42.139C277.262 42.1713 277.405 41.8501 277.405 41.8501C277.405 41.8501 277.201 41.3479 277.318 41.322C277.423 41.2813 277.521 41.2245 277.607 41.1538C277.607 41.1538 277.432 40.4037 277.955 40.6538C278.477 40.9038 278.179 42.5442 278.764 42.0441C279.35 41.544 278.735 40.3196 278.54 38.1231C278.334 36.0666 276.86 35.06 276.595 34.8272ZM270.091 44.1652C270.129 45.6526 269.913 46.0514 269.779 46.1052C269.688 46.1264 269.595 46.1308 269.503 46.1182C269.427 45.8229 269.447 44.9649 269.476 44.2902C269.661 44.1958 269.87 44.1525 270.079 44.1652H270.091Z" fill="#BEEDE8"/>
</g>
<g clip-path="url(#clip6_28_643)">
<path opacity="0.87" d="M561.432 15.4586C561.432 15.4586 558.019 17.2694 557.823 20.5018C557.627 23.7342 558.302 27.7194 558.041 30.455C557.78 33.1906 557.579 34.367 557.137 35.051C557.303 34.7929 557.573 34.3692 557.573 34.3692L557 35.9843L558.052 34.58C558.052 34.7778 558.034 35.0101 558.023 35.2854L557.74 36.1736L558 35.8574C557.908 38.0705 557.767 41.5717 557.716 42.8901C557.642 44.8816 557.832 44.8256 558.209 45.0708C558.585 45.316 558.513 46.8128 558.513 46.8128L559.459 46.9419C560.401 47.0731 561.725 46.9548 561.538 46.4558C561.351 45.9569 560.04 44.2708 560.04 44.2708L560.062 40.2297C560.062 40.2297 560.772 36.8123 561.151 36.3155C561.53 35.8187 563.245 32.9068 563.245 32.9068C563.474 32.5304 563.738 32.1762 564.034 31.8486C564.058 32.0637 564.069 32.225 564.069 32.2788C564.069 32.5282 563.568 35.4488 563.372 36.836C563.341 37.051 563.873 37.5844 563.873 37.5844C563.873 37.5844 564.903 40.1996 565.24 41.0749C565.708 42.2965 566.205 42.6965 566.523 44.2751C566.841 45.8536 567.194 46.9268 567.474 46.8558C567.84 46.7569 568.156 47.757 568.52 47.8559C569.025 47.9957 570.732 47.8967 570.887 47.301L569.476 45.645L568.875 44.1697C568.04 42.6642 567.452 41.0375 567.133 39.3501C566.562 36.4446 567.146 37.1113 567.148 36.5306C567.15 35.9499 567.159 34.752 567.159 34.752L568.642 29.2872C569.191 28.9398 569.714 28.5554 570.21 28.1366C570.606 28.5517 571.081 28.6721 571.544 28.9474C572.265 29.3775 574.907 30.1023 576.335 30.2765C577.764 30.4507 583.728 29.4851 584.319 29.3238C584.438 29.2961 584.56 29.2838 584.682 29.2872C584.765 31.8852 584.826 35.0574 584.643 35.4359C584.327 36.0811 584.366 36.2962 584.758 36.6123C585.15 36.9285 585.355 41.7545 585.595 43.0212C585.788 44.0579 585.451 44.5439 585.619 44.716C585.85 45.0584 586.055 45.4179 586.231 45.7913C586.748 46.1497 587.304 46.4511 587.888 46.6902C588.136 46.9042 588.325 47.1774 588.436 47.4838C588.698 48.2495 589.776 47.9742 590.873 47.9806C592.038 47.9806 590.902 46.3806 590.902 46.3806L589.66 43.06C589.66 43.06 589.467 40.7781 589.937 39.4748C590.19 38.7694 590.325 37.3823 590.155 36.636C589.985 35.8897 590.529 30.5862 590.529 30.5862C590.783 29.6252 591.279 28.7433 591.971 28.0226C593.06 26.9473 592.565 26.5322 593.197 25.5408C593.828 24.5493 594.939 23.0633 594.939 23.0633L598.062 20.0932C598.062 20.0932 599.771 18.5168 599.712 18.7641C599.654 19.0114 601.409 19.676 603.009 21.3621C603.325 21.6954 604.261 22.6976 604.261 22.6976C604.261 22.6976 605.035 24.4719 605.649 24.2267C606.263 23.9816 607.632 23.4353 608.227 22.2761C608.821 21.1169 607.007 17.5899 607.018 15.693C607.018 14.3445 607.162 14.2542 606.75 12.5918C606.498 11.5724 605.461 10.4562 604.697 9.74645C605.507 9.55934 607.963 8.54425 608.101 7.66034C608.238 6.77642 608.996 5.09676 608.996 5.09676C608.996 5.09676 609.25 4.5333 607.225 6.2065C607.543 5.61292 607.473 4.76126 606.036 5.20644C605.483 5.37849 603.765 6.7248 602.652 7.54419L603.408 6.25381H603.282V6.28392C603.253 6.26456 603.184 6.29682 603.184 6.29682L603.072 6.45381C603.072 6.42801 603.042 6.37855 603.042 6.37855L602.942 6.36564C602.942 6.36564 602.857 6.43231 602.822 6.46672C602.822 6.42801 602.796 6.35059 602.796 6.35059L602.108 6.46458L602.001 6.49038L601.975 6.58715L601.886 6.45597L601.772 6.46887C601.772 6.46887 601.753 6.5678 601.744 6.61726L601.476 6.53125L601.444 6.61511C601.365 6.53769 601.285 6.466 601.202 6.40005C601.202 6.37854 601.174 6.33768 601.174 6.33768C601.122 6.46934 601.061 6.59726 600.991 6.7205C600.919 6.65814 600.899 6.49038 600.825 6.43016L600.777 6.04305L600.662 6.45812C600.662 6.47102 600.662 6.49253 600.647 6.52694C600.578 6.42519 600.516 6.31963 600.459 6.21079L600.346 6.42585L600.239 6.70114C600.22 6.70114 600.196 6.73985 600.196 6.73985C600.196 6.73985 600.122 7.12266 600.083 7.31407C599.973 7.19914 599.88 7.06956 599.806 6.92911L599.553 7.17858C599.532 7.15492 599.49 7.09471 599.49 7.09471L599.272 7.67109C599.104 7.42891 598.958 7.17189 598.837 6.9033L598.691 7.21944L598.647 7.15277L598.26 7.26031C598.26 7.26031 598.293 7.3829 598.306 7.44312L597.735 7.28611C597.735 7.28611 597.938 7.50118 597.898 7.67753L597.293 7.5743C597.293 7.5743 597.511 7.64097 597.511 7.7356L597.239 7.62807C597.239 7.62807 597.254 7.7528 597.26 7.81302L597.182 7.76356L597.058 7.98938C596.906 7.85343 596.731 7.74496 596.542 7.66893L596.505 7.884L595.634 8.20444C595.674 8.27859 595.72 8.35039 595.769 8.41951C595.682 8.398 595.499 8.37649 595.499 8.37649L595.873 8.52919C595.726 8.51937 595.581 8.49706 595.438 8.46252L595.366 8.55285L595.383 8.58726H595.126L595.248 8.97007L594.98 8.62813C594.98 8.62813 594.482 8.97223 594.499 9.08191C594.281 9.01309 594.516 8.71845 594.516 8.71845L593.785 9.47548L593.236 9.31847C593.236 9.31847 593.277 9.45827 593.306 9.52064C593.294 9.53049 593.285 9.54213 593.277 9.55505C593.258 9.65676 593.243 9.75941 593.234 9.86259C593.175 9.8092 593.119 9.75246 593.066 9.69268L592.787 9.87334C592.755 9.84754 592.687 9.90561 592.687 9.90561C592.687 9.90561 592.657 10.0798 592.639 10.168C592.583 10.1207 592.538 10.0611 592.509 9.99378L592.35 10.254C592.295 10.2239 592.191 10.1551 592.191 10.1551L592.141 10.3508C591.945 10.3823 591.747 10.396 591.548 10.3916V10.5487L591.439 10.5185L591.533 10.7164L591.135 10.7938C591.135 10.7938 591.187 10.9078 591.209 10.968C591.085 10.9938 590.836 11.0347 590.836 11.0347L590.821 11.1465L590.93 11.2024C590.584 11.2756 589.896 11.4175 589.896 11.4175L589.998 11.5637C589.897 11.5867 589.799 11.6206 589.706 11.6648L589.719 11.7788H589.75C589.584 11.7941 589.42 11.8192 589.257 11.8541V12.0218C589.04 12.0778 588.604 12.1616 588.604 12.1616L588.835 12.3444C588.567 12.4434 588.267 12.4412 587.994 12.5315C587.981 12.5351 587.969 12.5429 587.961 12.5538C587.952 12.5647 587.948 12.5781 587.948 12.5918C587.948 12.6055 587.952 12.6188 587.961 12.6297C587.969 12.6406 587.981 12.6484 587.994 12.652H588.025C587.907 12.6977 587.793 12.7524 587.683 12.8154C587.65 12.8391 587.637 12.9036 587.683 12.923L587.605 12.9509C587.591 12.9545 587.579 12.9623 587.571 12.9732C587.562 12.9841 587.558 12.9974 587.558 13.0111C587.558 13.0249 587.562 13.0382 587.571 13.0491C587.579 13.0599 587.591 13.0678 587.605 13.0714H587.642C587.612 13.0934 587.58 13.1135 587.548 13.1316C587.536 13.1386 587.526 13.1493 587.521 13.1621C587.515 13.1749 587.514 13.189 587.518 13.2025C587.562 13.3338 587.636 13.4532 587.734 13.5513C587.833 13.6494 587.953 13.7237 588.086 13.7682C588.083 13.7741 588.078 13.7793 588.073 13.7832C587.805 13.8987 587.521 13.9713 587.23 13.9983C587.243 14.0062 587.252 14.0183 587.257 14.0324C587.262 14.0465 587.262 14.0618 587.256 14.0757C585.821 14.1187 583.813 14.0198 583.813 14.0198L578.104 14.6714L574.402 14.4048C574.402 14.4048 571.549 14.1402 568.023 13.6241C565.116 13.2047 562.882 14.3144 561.432 15.4586ZM587.206 38.1414C587.722 38.9522 587.894 41.0642 587.938 42.9847C587.219 41.4749 587.136 39.7178 587.206 38.1414ZM560.613 31.1518C560.494 31.4645 560.292 31.74 560.029 31.9497C560.179 30.855 560.306 29.8937 560.306 29.7195C560.306 29.2894 558.638 23.6783 558.77 22.6224C558.849 22.122 558.985 21.632 559.175 21.1621V21.2137C559.175 22.5751 560.101 24.0095 561.432 25.6569C561.294 28.07 560.867 30.4959 560.613 31.1518Z" fill="#BEEDE8"/>
</g>
<g clip-path="url(#clip7_28_643)">
<path opacity="0.87" d="M707.143 46.5813C707.191 46.8396 707.544 47.1285 707.992 47.1285C708.441 47.1285 708.682 45.6621 708.682 45.6621C708.739 45.6539 708.792 45.6328 708.839 45.6004C708.886 45.5681 708.925 45.5253 708.953 45.4754C708.981 45.4255 708.997 45.3698 709.001 45.3126C709.004 45.2554 708.994 45.1983 708.972 45.1455C708.331 43.5834 707.91 41.9393 707.72 40.2604C707.654 39.5679 707.639 38.8715 707.674 38.1767C707.823 37.7841 707.919 37.3734 707.962 36.9554C707.992 36.6398 708.001 36.3224 707.988 36.0056C707.914 33.123 706.803 27.0034 706.292 26.3468C705.715 25.6027 703.213 24.0596 701.361 23.7532C699.508 23.4468 698.274 23.8014 695.899 23.4774C693.524 23.1535 691.73 23.994 690.833 23.7532C689.936 23.5125 687.304 23.4775 686.662 23.414C686.019 23.3505 684.289 23.994 684.032 23.2848C683.775 22.5757 683.069 23.1557 682.427 21.8666C681.785 20.5774 680.805 20.05 680.054 20.0018C679.627 20.0283 679.203 20.1017 678.792 20.2207C678.591 20.271 678.452 20.3104 678.452 20.3104C678.452 20.3104 676.014 19.6013 675.243 20.3104C674.472 21.0195 674.061 21.0961 672.709 22.44C672.709 22.44 671.115 24.099 671.009 24.8257C670.952 25.2218 671.183 26.1389 671.523 26.3403C671.893 26.488 672.306 26.488 672.676 26.3403C672.844 26.244 673.062 25.6705 673.062 25.6705C673.062 25.6705 674.721 26.001 675.115 25.6705C675.241 25.5655 675.535 25.1715 675.617 25.6705C675.642 25.8931 675.642 26.1177 675.617 26.3403C675.282 31.858 678.056 33.8563 678.633 34.4384C679.21 35.0206 679.98 37.2203 680.81 37.7696C681.639 38.319 682.54 37.4785 682.54 37.4785L682.795 37.6974L683.231 38.0542L683.257 38.0761C683.276 38.934 683.326 40.7025 683.416 41.0965C683.535 41.6042 683.368 43.9746 683.416 44.1913C683.463 44.408 682.345 45.6818 682.621 46.4894C682.704 46.7258 683.801 46.4894 683.801 46.4894C683.801 46.4894 684.067 45.5942 684.114 45.3775C684.162 45.1609 684.114 45.4257 684.378 45.4257C684.641 45.4257 684.667 45.255 684.524 43.6113C684.476 43.0707 684.454 42.2849 684.445 41.4751C684.556 41.8253 684.643 42.2083 684.643 42.2083V45.6665C684.463 45.7665 684.326 45.9303 684.258 46.1261C684.162 46.4413 684.234 47.575 684.234 47.575C684.234 47.575 685.46 47.645 685.558 47.575C685.656 47.505 685.582 45.8853 685.558 45.7409C685.534 45.5964 686.111 45.9816 686.063 45.5942C686.015 45.2068 685.797 44.5305 685.797 44.1913C685.797 43.944 685.85 40.8207 685.878 39.1835C686.161 39.1975 686.446 39.168 686.72 39.096C687.234 38.9034 687.232 37.0977 687.232 37.0977C687.232 37.0977 687.489 36.7103 689.781 38.516C692.074 40.3217 696.985 38.3234 697.753 38.1308C698.522 37.9382 696.985 35.0972 698.074 37.2903C698.849 38.8465 700.433 40.1225 701.868 40.7244C701.868 40.7725 701.851 40.8272 701.842 40.8798C701.814 41.0592 701.783 41.2453 701.746 41.4357C701.602 42.2083 699.774 45.3207 699.774 45.6752V46.345C699.774 46.345 698.572 47.2467 698.716 47.6056C698.859 47.9646 700.048 48.0127 700.048 48.0127L700.346 46.949C700.346 46.949 700.736 46.5791 700.882 46.5945C701.028 46.6098 703.49 41.6633 703.49 41.6633C703.49 41.6633 703.59 41.4445 703.708 41.1162C703.708 41.0899 703.727 41.0636 703.736 41.0352C704.378 40.8163 704.877 39.7811 705.236 38.6845C705.482 39.356 705.764 40.0136 706.081 40.6543C706.329 41.0275 706.554 41.4156 706.756 41.8165C706.756 41.8165 707.285 45.557 707.428 45.6686C707.572 45.7803 707.095 46.3231 707.143 46.5813Z" fill="#BEEDE8"/>
</g>
<defs>
<clipPath id="clip0_28_643">
<rect width="22" height="23" fill="white" transform="translate(212 25)"/>
</clipPath>
<clipPath id="clip1_28_643">
<rect width="74" height="48" fill="white" transform="translate(421)"/>
</clipPath>
<clipPath id="clip2_28_643">
<rect width="21" height="22" fill="white" transform="translate(0 26)"/>
</clipPath>
<clipPath id="clip3_28_643">
<rect width="45" height="24" fill="white" transform="translate(94 24)"/>
</clipPath>
<clipPath id="clip4_28_643">
<rect width="18" height="21" fill="white" transform="translate(292 27)"/>
</clipPath>
<clipPath id="clip5_28_643">
<rect width="22" height="22" fill="white" transform="translate(257 26)"/>
</clipPath>
<clipPath id="clip6_28_643">
<rect width="52" height="43" fill="white" transform="translate(557 5)"/>
</clipPath>
<clipPath id="clip7_28_643">
<rect width="38" height="28" fill="white" transform="translate(671 20)"/>
</clipPath>
</defs>
</svg>
