<svg width="25" height="24" viewBox="0 0 25 24" fill="none" xmlns="http://www.w3.org/2000/svg">
<g clip-path="url(#clip0_320_384)">
<path d="M18.24 7.17C18.1937 7.11729 18.1368 7.07492 18.0731 7.04563C18.0093 7.01634 17.9401 7.00079 17.87 7H14.1V5.59C14.1 5.31 14.16 4.99 14.61 4.99H17.61C17.6758 4.99281 17.7415 4.98079 17.8021 4.95482C17.8626 4.92886 17.9166 4.88962 17.96 4.84C18.0481 4.74856 18.0982 4.627 18.1 4.5V0.5C18.1 0.367392 18.0473 0.240215 17.9535 0.146447C17.8598 0.0526784 17.7326 0 17.6 0L13.27 0C8.46999 0 8.09999 4.1 8.09999 5.35V7H5.59999C5.46738 7 5.34021 7.05268 5.24644 7.14645C5.15267 7.24021 5.09999 7.36739 5.09999 7.5V11.5C5.09999 11.6326 5.15267 11.7598 5.24644 11.8536C5.34021 11.9473 5.46738 12 5.59999 12H8.09999V23.5C8.09999 23.6326 8.15267 23.7598 8.24644 23.8536C8.34021 23.9473 8.46738 24 8.59999 24H13.6C13.7326 24 13.8598 23.9473 13.9535 23.8536C14.0473 23.7598 14.1 23.6326 14.1 23.5V12H17.45C17.5744 12.0006 17.6945 11.9549 17.787 11.8717C17.8794 11.7884 17.9376 11.6738 17.95 11.55L18.37 7.55C18.3758 7.48111 18.3672 7.41178 18.3448 7.34637C18.3224 7.28097 18.2868 7.22091 18.24 7.17Z" fill="white"/>
</g>
<defs>
<clipPath id="clip0_320_384">
<rect width="24" height="24" fill="white" transform="translate(0.0999908)"/>
</clipPath>
</defs>
</svg>
