<svg width="25" height="24" viewBox="0 0 25 24" fill="none" xmlns="http://www.w3.org/2000/svg">
<g clip-path="url(#clip0_320_390)">
<path d="M23.945 12.27C23.945 11.48 23.875 10.73 23.755 10H12.455V14.51H18.925C18.635 15.99 17.785 17.24 16.525 18.09V21.09H20.385C22.645 19 23.945 15.92 23.945 12.27Z" fill="#4285F4"/>
<path d="M12.455 24C15.695 24 18.405 22.92 20.385 21.09L16.525 18.09C15.445 18.81 14.075 19.25 12.455 19.25C9.32503 19.25 6.67503 17.14 5.72503 14.29H1.74503V17.38C3.71503 21.3 7.76503 24 12.455 24Z" fill="#34A853"/>
<path d="M5.72502 14.2901C5.47502 13.5701 5.34502 12.8001 5.34502 12.0001C5.34502 11.2001 5.48502 10.4301 5.72502 9.71012V6.62012H1.74502C0.925016 8.24012 0.455017 10.0601 0.455017 12.0001C0.455017 13.9401 0.925016 15.7601 1.74502 17.3801L5.72502 14.2901Z" fill="#FBBC05"/>
<path d="M12.455 4.75C14.225 4.75 15.805 5.36 17.055 6.55L20.475 3.13C18.405 1.19 15.695 0 12.455 0C7.76503 0 3.71503 2.7 1.74503 6.62L5.72503 9.71C6.67503 6.86 9.32503 4.75 12.455 4.75Z" fill="#EA4335"/>
</g>
<defs>
<clipPath id="clip0_320_390">
<rect width="24" height="24" fill="white" transform="translate(0.200012)"/>
</clipPath>
</defs>
</svg>
