<svg width="1434" height="530" viewBox="0 0 1434 530" fill="none" xmlns="http://www.w3.org/2000/svg">
<g style="mix-blend-mode:multiply" opacity="0.25">
<path d="M-68.7272 396.445C-53.8431 394.235 998.026 331.54 1487.57 395.217V500.719L-56.869 539.023L-68.7272 396.445Z" fill="#31B5A7"/>
</g>
<g style="mix-blend-mode:multiply" opacity="0.25">
<path d="M-68.7272 424.109C-53.8431 422.391 993.61 345.536 1491.98 421.654L1483.4 600.082L-56.869 539.024L-68.7272 424.109Z" fill="#31B5A7"/>
</g>
<g style="mix-blend-mode:multiply" opacity="0.37">
<path d="M-68.7272 452.019C-53.8431 450.219 993.61 375.083 1491.98 449.564L1487.57 534.113L-56.869 564.396L-68.7272 452.019Z" fill="#31B5A7"/>
</g>
<g style="mix-blend-mode:multiply" opacity="0.25">
<g style="mix-blend-mode:multiply" opacity="0.25">
<path d="M1192.91 356.503C1314.19 369.026 1389.19 386.214 1389.19 405.612C1389.19 443.835 1086.1 474.855 712.119 474.855C338.134 474.855 34.9712 443.835 34.9712 405.612C34.9712 392.516 70.1371 380.321 131.309 369.926C11.9089 375.246 -64.9654 379.83 -68.6455 380.485L-56.7872 539.351L1487.57 496.299V378.766C1406.52 367.798 1305.03 360.678 1192.91 356.503Z" fill="#31B5A7"/>
</g>
</g>
<path opacity="0.12" d="M800.443 470.763C800.443 470.763 822.524 471.908 839.289 471.99C863.823 471.99 842.478 470.599 821.215 470.108C799.952 469.617 784.822 469.862 800.443 470.763Z" fill="#FCF146"/>
<g style="mix-blend-mode:multiply" opacity="0.12">
<path d="M790.22 473.627C790.22 473.627 812.383 474.773 829.066 474.855C853.601 474.855 832.256 473.464 810.993 473.054C789.729 472.645 774.354 472.727 790.22 473.627Z" fill="#31B5A7"/>
</g>
<path opacity="0.12" d="M733.464 470.763C733.464 470.763 755.708 470.763 772.392 470.763C796.926 470.108 775.418 469.289 754.155 469.535C732.891 469.78 717.926 470.353 733.464 470.763Z" fill="#FCF146"/>
<path opacity="0.12" d="M798.153 479.93C798.153 479.93 820.234 481.157 836.917 481.239C861.451 481.239 840.107 479.848 818.843 479.438C797.58 479.029 782.533 479.357 798.153 479.93Z" fill="#FCF146"/>
<g style="mix-blend-mode:multiply" opacity="0.12">
<path d="M743.359 477.638C743.359 477.638 765.522 478.784 782.205 478.866C806.74 478.866 785.395 477.556 764.132 477.065C742.869 476.574 727.739 476.819 743.359 477.638Z" fill="#31B5A7"/>
</g>
<path d="M1530.83 533.785C1530.83 533.785 618.97 457.421 -82.4665 479.93L-100.295 518.807C-100.295 518.807 1144.09 507.349 1515.95 622.426L1530.83 533.785Z" fill="url(#paint0_linear_305_1496)"/>
<path style="mix-blend-mode:multiply" opacity="0.56" d="M1529.19 543.443L1530.83 533.785C1530.83 533.785 620.034 456.685 -81.4033 479.275L-84.4292 485.823C565.322 465.279 1394.17 531.494 1529.19 543.443Z" fill="url(#paint1_linear_305_1496)"/>
<path style="mix-blend-mode:multiply" opacity="0.56" d="M1529.19 543.443L1529.93 537.878C1458.13 531.985 591.083 461.841 -83.9385 483.449L-84.4292 485.823C565.322 465.279 1394.17 531.493 1529.19 543.443Z" fill="url(#paint2_linear_305_1496)"/>
<path d="M492.373 476.246C492.373 476.246 492.373 362.887 493.191 347.746C493.191 342.344 511.428 343.244 511.183 349.956C510.938 356.667 504.477 470.763 504.477 476.165C504.477 481.567 492.373 476.246 492.373 476.246Z" fill="#CCC2B6"/>
<g style="mix-blend-mode:multiply" opacity="0.5">
<g style="mix-blend-mode:multiply" opacity="0.5">
<path d="M505.785 344.963C506.767 349.71 501.042 349.955 494.581 348.073C490.738 346.927 500.633 354.048 504.967 353.311C507.176 353.311 502.105 450.628 500.633 478.538C502.759 478.538 504.559 478.538 504.559 476.165C504.559 470.763 511.019 355.685 511.183 349.955C511.265 347.5 508.893 345.863 505.785 344.963Z" fill="#BBB0A3"/>
</g>
</g>
<g style="mix-blend-mode:multiply" opacity="0.4">
<path d="M502.35 430.821C501.533 444.899 504.068 368.78 504.068 367.716C504.068 366.652 504.886 406.676 504.722 412.242C504.558 417.807 505.622 362.233 505.622 358.222C505.622 354.212 504.804 367.798 504.804 367.798L503.495 354.375C503.495 354.375 503.086 416.416 502.35 430.821Z" fill="#767662"/>
</g>
<g style="mix-blend-mode:multiply" opacity="0.4">
<path d="M495.317 349.383C495.317 349.383 493.436 447.6 493.518 445.554C493.6 443.507 496.299 351.593 496.299 351.593V415.516L497.362 350.037C497.362 350.037 496.299 350.528 495.317 349.383Z" fill="#767662"/>
</g>
<g style="mix-blend-mode:multiply" opacity="0.4">
<path d="M499.897 403.484C499.406 406.84 497.444 461.514 496.871 477.802C497.169 477.849 497.473 477.849 497.771 477.802C498.425 458.24 500.388 400.128 499.897 403.484Z" fill="#767662"/>
</g>
<g style="mix-blend-mode:multiply" opacity="0.4">
<path d="M503.168 474.446V450.464L501.778 478.62C502.516 478.576 503.226 478.321 503.823 477.883L505.867 428.775L503.168 474.446Z" fill="#767662"/>
</g>
<g style="mix-blend-mode:multiply" opacity="0.4">
<path d="M496.299 431.23L495.644 423.455L494.172 459.386L495.726 434.832L494.745 476.656L498.589 400.783L496.299 431.23Z" fill="#767662"/>
</g>
<g style="mix-blend-mode:multiply" opacity="0.4">
<path d="M499.406 352.002L498.916 392.925L500.47 352.984C500.47 352.984 499.897 353.066 499.406 352.002Z" fill="#767662"/>
</g>
<g style="mix-blend-mode:multiply" opacity="0.29">
<path d="M508.484 352.165C508.484 352.902 504.967 424.437 505.213 425.828C505.458 427.22 509.629 351.674 509.629 351.674L508.484 352.165Z" fill="#767662"/>
</g>
<g style="mix-blend-mode:overlay" opacity="0.51">
<path d="M495.154 354.866C495.154 354.866 494.336 470.108 494.254 471.745C494.172 473.382 495.808 474.037 496.135 472.972C496.462 471.908 499.815 358.959 499.897 356.994C499.979 355.03 495.072 353.229 495.154 354.866Z" fill="#F7F8F9"/>
</g>
<path d="M369.129 365.343C435.944 368.862 479.697 360.35 495.317 360.923C497.444 360.923 498.261 379.748 495.808 380.157C453.776 387.471 410.969 389.26 368.475 385.477C365.449 384.986 364.386 364.852 369.129 365.343Z" fill="#CCC2B6"/>
<g style="mix-blend-mode:multiply" opacity="0.4">
<path d="M480.597 369.272C480.597 369.272 425.231 377.456 409.283 376.883C393.336 376.311 431.446 379.912 480.597 369.272Z" fill="#767662"/>
</g>
<g style="mix-blend-mode:multiply" opacity="0.4">
<path d="M497.362 371.972C478.879 377.211 441.587 382.694 441.587 382.694C460.314 380.724 478.909 377.663 497.28 373.528C497.339 373.011 497.366 372.492 497.362 371.972Z" fill="#767662"/>
</g>
<g style="mix-blend-mode:multiply" opacity="0.4">
<path d="M378.207 381.712C376.816 381.712 392.682 379.748 395.544 379.503C392.273 379.503 370.356 380.157 367.902 380.075C365.449 379.994 375.508 381.631 375.508 381.631L370.519 383.186C370.519 383.186 408.139 383.922 421.305 383.759C434.472 383.595 379.76 381.712 378.207 381.712Z" fill="#767662"/>
</g>
<g style="mix-blend-mode:multiply" opacity="0.4">
<path d="M444.94 371.891C444.94 371.891 381.56 376.474 376.898 376.392C376.898 376.392 435.29 371.072 444.94 371.891Z" fill="#767662"/>
</g>
<g style="mix-blend-mode:multiply" opacity="0.4">
<path d="M478.716 373.036C460.123 376.922 441.256 379.357 422.287 380.321C441.319 380.152 460.263 377.707 478.716 373.036Z" fill="#767662"/>
</g>
<g style="mix-blend-mode:multiply" opacity="0.4">
<path d="M368.475 385.232C410.969 389.014 453.776 387.226 495.808 379.912C498.261 379.503 497.444 360.759 495.317 360.678C492.593 360.537 489.863 360.537 487.139 360.678C488.285 361.676 489.026 363.06 489.222 364.568C489.418 366.076 489.055 367.604 488.202 368.862C482.641 379.503 415.09 382.122 390.065 377.866C372.809 375.001 372.645 369.681 379.597 365.097L369.129 365.343C364.386 364.852 365.449 384.986 368.475 385.232Z" fill="#BBB0A3"/>
</g>
<g style="mix-blend-mode:multiply" opacity="0.55">
<path d="M366.512 381.221C367.003 383.513 367.657 385.232 368.475 385.232C410.969 389.014 453.776 387.226 495.808 379.912C496.544 379.912 496.953 378.111 497.198 375.901C454.038 383.218 410.123 385.006 366.512 381.221Z" fill="#887E6F"/>
</g>
<path d="M365.939 424.682C434.309 428.284 479.125 419.772 495.154 420.426C497.362 420.426 498.18 439.169 495.726 439.497C452.5 446.714 408.536 448.446 364.876 444.653C362.259 444.408 361.033 424.437 365.939 424.682Z" fill="#CCC2B6"/>
<g style="mix-blend-mode:multiply" opacity="0.4">
<path d="M398.161 430.821C412.228 430.821 389.165 430.33 364.386 430.33C376.162 430.821 388.511 430.821 398.161 430.821Z" fill="#767662"/>
</g>
<g style="mix-blend-mode:multiply" opacity="0.4">
<path d="M443.386 426.319C443.386 426.319 386.139 434.995 369.783 434.504C353.427 434.013 392.764 438.187 443.386 426.319Z" fill="#767662"/>
</g>
<g style="mix-blend-mode:multiply" opacity="0.4">
<path d="M363.568 440.561C382.296 441.379 419.751 438.269 419.751 438.269C401.194 440.642 382.519 441.981 363.813 442.28L363.568 440.561Z" fill="#767662"/>
</g>
<g style="mix-blend-mode:multiply" opacity="0.4">
<path d="M483.704 427.793C485.095 427.793 469.393 431.721 466.612 432.376L494.091 428.038C496.789 428.038 486.403 427.547 486.403 427.547L491.31 425.337C491.31 425.337 453.772 429.675 440.606 431.558C427.439 433.44 482.15 427.956 483.704 427.793Z" fill="#767662"/>
</g>
<g style="mix-blend-mode:multiply" opacity="0.4">
<path d="M435.372 435.159C440.524 434.668 428.175 436.468 422.205 437.532C416.235 438.596 444.531 433.849 454.917 432.867C445.185 433.604 409.283 436.141 407.239 436.468C405.194 436.796 430.219 435.568 435.372 435.159Z" fill="#767662"/>
</g>
<g style="mix-blend-mode:multiply" opacity="0.4">
<path d="M410.02 443.999C410.02 443.999 441.015 441.871 447.557 441.543C454.1 441.216 424.249 441.543 419.016 442.443C413.782 443.344 426.458 440.234 430.874 439.661C423.834 440.644 416.868 442.093 410.02 443.999Z" fill="#767662"/>
</g>
<g style="mix-blend-mode:multiply" opacity="0.4">
<path d="M496.299 432.458C477.706 436.343 458.839 438.779 439.87 439.742C458.902 439.574 477.846 437.128 496.299 432.458Z" fill="#767662"/>
</g>
<g style="mix-blend-mode:multiply" opacity="0.4">
<path d="M364.386 429.348C380.047 427.919 395.793 427.673 411.492 428.611C395.817 426.955 380 427.202 364.386 429.348Z" fill="#767662"/>
</g>
<g style="mix-blend-mode:multiply" opacity="0.4">
<path d="M495.154 420.426C491.332 420.348 487.51 420.484 483.704 420.836C484.476 421.908 484.892 423.197 484.892 424.519C484.892 425.841 484.476 427.129 483.704 428.202C478.061 438.842 410.592 441.461 385.567 437.205C369.211 434.422 368.147 429.757 374.199 425.01H366.021C361.114 425.01 362.341 444.735 365.367 444.981C409.027 448.774 452.99 447.041 496.217 439.824C498.179 439.006 497.362 420.508 495.154 420.426Z" fill="#BBB0A3"/>
</g>
<g style="mix-blend-mode:multiply" opacity="0.55">
<path d="M363.241 440.643C363.731 442.934 364.386 444.571 365.285 444.653C408.945 448.446 452.908 446.714 496.135 439.497C496.871 439.497 497.362 437.451 497.525 434.913C453.2 442.634 408.061 444.56 363.241 440.643Z" fill="#887E6F"/>
</g>
<g style="mix-blend-mode:overlay" opacity="0.51">
<path d="M478.879 422.636C445.645 426.282 412.196 427.595 378.779 426.565C376.326 426.565 371.255 429.921 388.756 432.212C406.257 434.504 493.027 428.12 478.879 422.636Z" fill="#F7F8F9"/>
</g>
<path d="M353.1 469.289C353.1 469.289 352.2 363.951 352.527 350.774C352.527 346.027 370.683 346.682 370.519 352.493C370.356 358.304 365.449 464.297 365.449 469.044C365.449 473.791 353.1 469.289 353.1 469.289Z" fill="#CCC2B6"/>
<g style="mix-blend-mode:multiply" opacity="0.6">
<g style="mix-blend-mode:multiply" opacity="0.6">
<path d="M365.449 348.237C366.512 352.329 360.705 352.656 354.245 351.02C350.401 350.119 360.378 356.176 364.713 355.521C366.921 355.521 362.832 446.863 361.687 471.172C363.813 471.172 365.612 471.172 365.612 469.044C365.612 464.297 370.765 357.485 370.846 352.493C370.601 350.365 368.229 348.973 365.449 348.237Z" fill="#BBB0A3"/>
</g>
</g>
<g style="mix-blend-mode:multiply" opacity="0.4">
<path d="M362.668 422.636C362.014 434.913 363.649 368.617 363.649 367.716C363.649 366.816 364.958 401.601 364.794 406.512C364.631 411.423 364.794 362.887 364.794 359.368C364.392 362.078 364.173 364.813 364.14 367.553L362.586 355.93C362.586 355.93 363.241 410.441 362.668 422.636Z" fill="#767662"/>
</g>
<g style="mix-blend-mode:multiply" opacity="0.4">
<path d="M354.654 352.247C354.654 352.247 353.999 438.023 353.999 435.895C353.999 433.767 355.553 354.048 355.553 354.048L356.126 409.704V352.411C356.126 352.411 355.717 353.148 354.654 352.247Z" fill="#767662"/>
</g>
<g style="mix-blend-mode:multiply" opacity="0.4">
<path d="M359.888 399.228C359.397 402.174 358.007 456.521 357.598 470.599H358.497C358.906 453.575 360.297 396.363 359.888 399.228Z" fill="#767662"/>
</g>
<g style="mix-blend-mode:multiply" opacity="0.4">
<path d="M363.813 467.571V440.152L362.505 471.254C363.256 471.21 363.985 470.986 364.631 470.599L366.185 421.49L363.813 467.571Z" fill="#767662"/>
</g>
<g style="mix-blend-mode:multiply" opacity="0.4">
<path d="M356.289 423.455L355.553 416.743L354.49 448.009L355.717 426.974L355.144 469.944H355.226L358.252 397.345L356.289 423.455Z" fill="#767662"/>
</g>
<g style="mix-blend-mode:multiply" opacity="0.4">
<path d="M358.824 354.457V389.897L359.969 355.194C359.969 355.194 359.315 355.357 358.824 354.457Z" fill="#767662"/>
</g>
<g style="mix-blend-mode:multiply" opacity="0.29">
<path d="M367.902 354.457C367.902 355.112 365.203 417.48 365.449 418.38C365.694 419.28 368.965 353.802 368.965 353.802L367.902 354.457Z" fill="#767662"/>
</g>
<g style="mix-blend-mode:overlay" opacity="0.51">
<path d="M354.654 355.767C354.654 355.767 354.654 462.742 354.654 463.887C354.654 465.033 356.207 465.852 356.535 464.951C356.862 464.051 359.07 359.041 359.07 357.322C359.07 355.603 354.49 354.375 354.654 355.767Z" fill="#F7F8F9"/>
</g>
<path d="M227.729 415.515C294.136 425.828 338.134 421.818 353.672 423.7C355.799 424.109 355.635 442.852 353.263 443.016C310.839 446.046 268.201 443.542 226.421 435.568C223.15 434.995 222.986 414.861 227.729 415.515Z" fill="#CCC2B6"/>
<g style="mix-blend-mode:multiply" opacity="0.4">
<path d="M224.54 420.344C224.54 420.999 224.54 421.654 224.54 422.309C228.874 422.309 254.635 425.583 264.449 426.401C253.572 424.846 227.975 420.999 224.54 420.344Z" fill="#767662"/>
</g>
<g style="mix-blend-mode:multiply" opacity="0.4">
<path d="M272.136 423.7C286.203 424.764 263.222 422.309 238.524 419.771C250.955 421.49 262.977 423.045 272.136 423.7Z" fill="#767662"/>
</g>
<g style="mix-blend-mode:multiply" opacity="0.4">
<path d="M338.624 430.821C338.624 430.821 283.013 432.949 267.148 430.821C251.282 428.693 289.065 436.714 338.624 430.821Z" fill="#767662"/>
</g>
<g style="mix-blend-mode:multiply" opacity="0.4">
<path d="M355.063 435.486C336.498 438.76 299.043 440.479 299.043 440.479C317.734 440.482 336.411 439.416 354.981 437.287C355.051 436.689 355.078 436.088 355.063 435.486Z" fill="#767662"/>
</g>
<g style="mix-blend-mode:multiply" opacity="0.4">
<path d="M235.989 432.867C234.517 432.867 250.464 432.376 253.327 432.867C250.056 432.867 228.22 430.903 225.767 430.576C223.313 430.248 233.29 432.949 233.29 432.949L228.22 433.931C228.22 433.931 265.594 438.515 278.843 439.742C292.091 440.97 237.543 433.113 235.989 432.867Z" fill="#767662"/>
</g>
<g style="mix-blend-mode:multiply" opacity="0.4">
<path d="M310.819 424.682C306.435 425.366 302.007 425.722 297.57 425.746C292.009 425.746 319.978 424.355 330.283 424.437C320.469 424.437 284.567 423.045 282.523 423.127C280.478 423.209 305.667 424.6 310.819 424.682Z" fill="#767662"/>
</g>
<g style="mix-blend-mode:multiply" opacity="0.4">
<path d="M354.899 428.447C354.899 428.447 325.212 429.266 318.997 429.757C328.048 428.476 337.171 427.765 346.312 427.629C351.301 428.12 339.115 425.91 334.944 425.665C341.661 426.043 348.335 426.974 354.899 428.447Z" fill="#767662"/>
</g>
<g style="mix-blend-mode:multiply" opacity="0.4">
<path d="M302.886 430.003C302.886 430.003 239.506 428.202 234.926 427.629C234.599 427.629 293.318 428.284 302.886 430.003Z" fill="#767662"/>
</g>
<g style="mix-blend-mode:multiply" opacity="0.4">
<path d="M336.498 434.586C317.703 436.574 298.782 437.094 279.906 436.141C298.763 437.915 317.766 437.392 336.498 434.586Z" fill="#767662"/>
</g>
<g style="mix-blend-mode:multiply" opacity="0.4">
<path d="M226.421 435.568C268.296 443.653 311.047 446.239 353.59 443.262C355.962 443.262 356.126 424.355 353.999 423.946C351.873 423.536 348.929 423.946 345.821 423.373C346.902 424.423 347.57 425.827 347.706 427.329C347.841 428.83 347.433 430.331 346.557 431.558C340.342 441.625 272.954 437.369 248.42 430.575C231.328 425.91 231.409 420.835 238.606 416.661L228.711 415.188C222.986 414.861 223.15 434.995 226.421 435.568Z" fill="#BBB0A3"/>
</g>
<g style="mix-blend-mode:multiply" opacity="0.55">
<path d="M224.294 431.394C224.294 433.686 225.276 435.404 226.094 435.568C267.969 443.653 310.72 446.239 353.263 443.262C353.918 443.262 354.408 441.625 354.735 439.333C311.095 442.23 267.263 439.562 224.294 431.394Z" fill="#887E6F"/>
</g>
<g style="mix-blend-mode:overlay" opacity="0.51">
<path d="M341.651 424.11C308.261 424.391 274.893 422.312 241.796 417.889C239.26 417.48 233.618 420.426 251.446 424.519C269.274 428.611 355.472 430.821 341.651 424.11Z" fill="#F7F8F9"/>
</g>
<path d="M226.421 356.094C294.299 367.389 339.442 364.279 355.308 366.325C357.516 366.734 357.352 385.396 354.817 385.477C311.084 387.842 267.227 384.651 224.295 375.983C221.35 375.41 221.269 355.357 226.421 356.094Z" fill="#CCC2B6"/>
<g style="mix-blend-mode:multiply" opacity="0.4">
<path d="M222.904 371.645C241.469 374.673 278.924 375.737 278.924 375.737C260.252 376.045 241.576 375.308 222.986 373.528C222.986 372.873 222.904 372.3 222.904 371.645Z" fill="#767662"/>
</g>
<g style="mix-blend-mode:multiply" opacity="0.4">
<path d="M343.204 372.464C344.595 372.464 328.729 374.755 325.867 375.083C329.22 375.083 351.055 373.855 353.509 373.937C355.962 374.019 345.903 372.545 345.903 372.545L350.892 370.827C350.892 370.827 313.272 370.827 300.024 371.4C286.775 371.973 341.65 372.464 343.204 372.464Z" fill="#767662"/>
</g>
<g style="mix-blend-mode:multiply" opacity="0.4">
<path d="M294.626 374.346C299.778 374.346 287.43 374.837 281.378 375.246C275.326 375.656 303.868 374.101 314.499 374.346C304.767 373.937 268.865 372.464 266.821 372.545C264.776 372.627 289.474 374.182 294.626 374.346Z" fill="#767662"/>
</g>
<g style="mix-blend-mode:multiply" opacity="0.4">
<path d="M268.947 380.321C268.947 380.321 299.942 381.712 306.403 382.122C312.864 382.531 283.177 379.502 277.943 379.83C272.709 380.157 285.549 378.438 289.883 378.357C282.869 378.561 275.876 379.217 268.947 380.321Z" fill="#767662"/>
</g>
<g style="mix-blend-mode:multiply" opacity="0.4">
<path d="M355.063 378.52C336.249 380.269 317.329 380.57 298.47 379.421C317.302 381.399 336.303 381.097 355.063 378.52Z" fill="#767662"/>
</g>
<g style="mix-blend-mode:multiply" opacity="0.4">
<path d="M354.981 366.325C352.118 366.325 348.275 365.752 343.613 365.507C344.367 366.571 344.771 367.844 344.771 369.149C344.771 370.454 344.367 371.726 343.613 372.791C337.398 382.858 270.01 377.947 245.476 370.827C229.12 366.161 228.547 361.332 234.844 357.404L226.666 356.094C221.841 355.357 221.923 375.41 224.867 375.983C267.693 384.624 311.438 387.814 355.063 385.477C357.271 385.395 357.271 366.734 354.981 366.325Z" fill="#BBB0A3"/>
</g>
<g style="mix-blend-mode:multiply" opacity="0.55">
<path d="M222.495 371.727C222.904 374.101 223.477 375.819 224.295 375.983C267.12 384.624 310.865 387.814 354.49 385.477C355.308 385.477 355.88 383.595 356.126 381.058C311.366 383.772 266.444 380.636 222.495 371.727Z" fill="#887E6F"/>
</g>
<path d="M774.355 481.73C774.355 481.73 774.355 368.453 775.172 353.311C775.172 347.827 793.41 348.81 793.164 355.521C792.919 362.233 786.785 476.246 786.622 481.73C786.458 487.214 774.355 481.73 774.355 481.73Z" fill="#CCC2B6"/>
<g style="mix-blend-mode:multiply" opacity="0.5">
<g style="mix-blend-mode:multiply" opacity="0.5">
<path d="M788.176 350.528C789.075 355.194 783.35 355.521 776.89 353.557C773.046 352.411 782.942 359.614 787.276 358.877C789.484 358.468 784.414 456.112 782.942 484.104C785.068 484.104 786.867 484.104 786.949 481.73C786.949 476.246 793.328 361.169 793.491 355.521C793.573 353.066 791.201 351.347 788.176 350.528Z" fill="#BBB0A3"/>
</g>
</g>
<g style="mix-blend-mode:multiply" opacity="0.4">
<path d="M784.659 435.977C783.923 450.055 786.376 374.019 786.376 372.955C786.376 371.891 787.276 411.832 787.031 417.48C786.785 423.127 787.93 367.389 787.93 363.379C787.474 366.552 787.201 369.75 787.112 372.955L785.804 359.614C785.804 359.614 785.395 421.9 784.659 435.977Z" fill="#767662"/>
</g>
<g style="mix-blend-mode:multiply" opacity="0.4">
<path d="M777.626 354.948C777.626 354.948 775.745 453.165 775.827 451.037C775.908 448.909 778.444 357.158 778.444 357.158V421.081L779.507 355.603C779.507 355.603 778.607 356.094 777.626 354.948Z" fill="#767662"/>
</g>
<g style="mix-blend-mode:multiply" opacity="0.4">
<path d="M782.533 408.968C782.042 412.323 780.079 466.998 779.507 483.367H780.406C780.733 463.56 782.533 405.694 782.533 408.968Z" fill="#767662"/>
</g>
<g style="mix-blend-mode:multiply" opacity="0.4">
<path d="M785.477 479.929V456.03L784.087 484.104C784.823 484.128 785.546 483.897 786.131 483.449L788.176 434.34L785.477 479.929Z" fill="#767662"/>
</g>
<g style="mix-blend-mode:multiply" opacity="0.4">
<path d="M778.28 436.714L777.626 429.02L776.154 464.87L777.708 440.725L776.726 482.549L780.57 406.676L778.28 436.714Z" fill="#767662"/>
</g>
<g style="mix-blend-mode:multiply" opacity="0.4">
<path d="M781.715 357.567L781.224 398.082L782.533 358.14C782.533 358.14 782.533 358.631 781.715 357.567Z" fill="#767662"/>
</g>
<g style="mix-blend-mode:multiply" opacity="0.29">
<path d="M790.711 357.649C790.711 358.468 787.194 430.002 787.44 431.312C787.685 432.622 791.856 357.158 791.856 357.158L790.711 357.649Z" fill="#767662"/>
</g>
<g style="mix-blend-mode:overlay" opacity="0.51">
<path d="M777.462 360.35C777.462 360.35 776.644 475.592 776.563 476.983C776.481 478.374 778.117 479.193 778.444 478.129C778.771 477.065 782.533 364.115 782.533 362.233C782.533 360.35 777.38 358.713 777.462 360.35Z" fill="#F7F8F9"/>
</g>
<path d="M651.683 370.663C718.498 374.182 762.251 365.588 777.871 366.243C780.079 366.243 780.815 385.068 778.362 385.477C736.326 392.751 693.524 394.539 651.029 390.797C647.839 390.552 646.694 370.417 651.683 370.663Z" fill="#CCC2B6"/>
<g style="mix-blend-mode:multiply" opacity="0.4">
<path d="M648.493 375.737C648.453 376.419 648.453 377.102 648.493 377.784C652.746 377.784 678.671 377.784 688.566 377.784C677.771 377.293 651.683 376.065 648.493 375.737Z" fill="#767662"/>
</g>
<g style="mix-blend-mode:multiply" opacity="0.4">
<path d="M696.254 374.264C710.32 373.855 687.258 373.773 662.478 373.855C674.581 374.264 687.012 374.51 696.254 374.264Z" fill="#767662"/>
</g>
<g style="mix-blend-mode:multiply" opacity="0.4">
<path d="M762.905 374.755C762.905 374.755 707.539 382.94 691.592 382.367C675.645 381.794 713.836 385.477 762.905 374.755Z" fill="#767662"/>
</g>
<g style="mix-blend-mode:multiply" opacity="0.4">
<path d="M779.67 377.538C761.188 382.695 723.896 388.26 723.896 388.26C742.612 386.331 761.205 383.353 779.588 379.339C779.657 378.741 779.684 378.14 779.67 377.538Z" fill="#767662"/>
</g>
<g style="mix-blend-mode:multiply" opacity="0.4">
<path d="M660.597 387.114C659.125 387.114 674.99 385.068 677.853 384.904L650.293 385.477C647.594 385.477 657.816 387.033 657.816 387.033L652.828 388.588C652.828 388.588 690.447 389.324 703.614 389.161C716.781 388.997 662.069 387.114 660.597 387.114Z" fill="#767662"/>
</g>
<g style="mix-blend-mode:multiply" opacity="0.4">
<path d="M734.854 371.236C740.006 371.236 727.657 372.545 721.687 373.609C715.717 374.673 744.014 370.008 754.4 369.026C744.668 369.681 708.766 372.3 706.722 372.627C704.677 372.955 729.702 371.727 734.854 371.236Z" fill="#767662"/>
</g>
<g style="mix-blend-mode:multiply" opacity="0.4">
<path d="M779.098 370.499C779.098 370.499 749.493 374.428 743.278 375.492C752.228 373.343 761.293 371.703 770.429 370.581C775.418 370.581 763.15 369.599 759.061 369.763C765.749 369.514 772.446 369.76 779.098 370.499Z" fill="#767662"/>
</g>
<g style="mix-blend-mode:multiply" opacity="0.4">
<path d="M727.249 377.456C727.249 377.456 663.868 382.04 659.289 381.958C659.289 381.712 717.598 376.638 727.249 377.456Z" fill="#767662"/>
</g>
<g style="mix-blend-mode:multiply" opacity="0.4">
<path d="M761.024 378.602C742.424 382.443 723.561 384.878 704.595 385.887C723.628 385.718 742.572 383.272 761.024 378.602Z" fill="#767662"/>
</g>
<g style="mix-blend-mode:multiply" opacity="0.4">
<path d="M650.783 390.797C693.279 394.539 736.08 392.751 778.116 385.477C780.57 385.068 779.834 366.325 777.626 366.243C774.901 366.102 772.172 366.102 769.448 366.243C770.61 367.231 771.362 368.617 771.559 370.13C771.755 371.643 771.382 373.175 770.511 374.428C764.95 385.15 697.398 387.769 672.373 383.513C655.118 380.566 654.954 375.328 661.905 370.663H651.683C646.694 370.417 647.839 390.552 650.783 390.797Z" fill="#BBB0A3"/>
</g>
<g style="mix-blend-mode:multiply" opacity="0.55">
<path d="M648.82 386.787C649.311 389.079 649.965 390.716 650.783 390.797C693.279 394.539 736.08 392.751 778.116 385.477C778.852 385.477 779.261 383.677 779.507 381.385C736.354 388.768 692.434 390.583 648.82 386.787Z" fill="#887E6F"/>
</g>
<g style="mix-blend-mode:overlay" opacity="0.51">
<path d="M765.686 367.635C732.455 371.326 699.003 372.639 665.585 371.563C663.132 371.563 658.062 374.919 675.563 377.211C693.064 379.502 779.834 372.791 765.686 367.635Z" fill="#F7F8F9"/>
</g>
<path d="M648.248 430.166C716.617 433.767 761.433 425.337 777.462 425.91C779.67 425.91 780.488 444.653 778.035 445.063C734.808 452.281 690.845 454.013 647.185 450.219C644.568 449.973 643.505 429.921 648.248 430.166Z" fill="#CCC2B6"/>
<g style="mix-blend-mode:multiply" opacity="0.4">
<path d="M680.061 436.387C694.127 436.387 671.065 435.895 646.285 435.895C658.471 436.305 670.82 436.632 680.061 436.387Z" fill="#767662"/>
</g>
<g style="mix-blend-mode:multiply" opacity="0.4">
<path d="M725.695 431.885C725.695 431.885 668.448 440.561 652.092 440.07C635.736 439.579 675.072 443.753 725.695 431.885Z" fill="#767662"/>
</g>
<g style="mix-blend-mode:multiply" opacity="0.4">
<path d="M645.958 446.045C664.686 446.945 702.06 443.753 702.06 443.753C683.508 446.191 664.831 447.558 646.122 447.845C646.023 447.25 645.968 446.648 645.958 446.045Z" fill="#767662"/>
</g>
<g style="mix-blend-mode:multiply" opacity="0.4">
<path d="M766.176 433.358C767.567 433.358 751.865 437.287 749.084 437.86C752.355 437.287 774.109 433.849 776.563 433.604C779.016 433.358 768.875 433.113 768.875 433.113L773.782 430.903C773.782 430.903 736.245 435.159 723.078 437.123C709.911 439.088 764.459 433.522 766.176 433.358Z" fill="#767662"/>
</g>
<g style="mix-blend-mode:multiply" opacity="0.4">
<path d="M717.68 440.643C722.832 440.152 710.483 441.952 704.513 443.016C698.543 444.08 726.84 439.415 737.226 438.433C727.494 439.088 691.592 441.707 689.547 442.034C687.503 442.361 712.528 441.134 717.68 440.643Z" fill="#767662"/>
</g>
<g style="mix-blend-mode:multiply" opacity="0.4">
<path d="M692.573 449.564C692.573 449.564 723.568 447.354 730.111 447.109C736.653 446.863 706.803 447.109 701.569 447.927C696.335 448.746 709.011 445.799 713.428 445.144C706.388 446.166 699.422 447.643 692.573 449.564Z" fill="#767662"/>
</g>
<g style="mix-blend-mode:multiply" opacity="0.4">
<path d="M778.198 438.024C759.598 441.864 740.735 444.299 721.769 445.308C740.802 445.139 759.746 442.694 778.198 438.024Z" fill="#767662"/>
</g>
<g style="mix-blend-mode:multiply" opacity="0.4">
<path d="M646.694 434.832C662.356 433.405 678.102 433.159 693.8 434.095C678.124 432.484 662.312 432.731 646.694 434.832Z" fill="#767662"/>
</g>
<g style="mix-blend-mode:multiply" opacity="0.4">
<path d="M777.462 425.91C773.667 425.864 769.872 426.028 766.095 426.401C766.848 427.466 767.253 428.739 767.253 430.043C767.253 431.348 766.848 432.621 766.095 433.686C760.452 444.408 692.982 447.027 667.957 442.771C651.601 439.988 650.538 435.241 656.59 430.575H648.412C643.586 430.575 644.731 450.382 647.757 450.628C691.417 454.423 735.381 452.69 778.607 445.472C780.488 444.653 779.67 426.074 777.462 425.91Z" fill="#BBB0A3"/>
</g>
<g style="mix-blend-mode:multiply" opacity="0.55">
<path d="M645.549 446.126C646.04 448.5 646.694 450.137 647.594 450.219C691.253 454.013 735.217 452.281 778.444 445.062C779.18 445.062 779.67 443.016 779.834 440.479C735.506 448.174 690.366 450.073 645.549 446.126Z" fill="#887E6F"/>
</g>
<g style="mix-blend-mode:overlay" opacity="0.51">
<path d="M761.188 428.447C727.957 432.138 694.505 433.451 661.088 432.376C658.634 432.376 653.564 435.732 671.065 438.024C688.566 440.315 775.336 433.604 761.188 428.447Z" fill="#F7F8F9"/>
</g>
<path d="M635.327 474.773C635.327 474.773 634.509 369.517 634.754 356.34C634.754 351.592 652.909 352.165 652.746 358.058C652.582 363.951 647.675 469.862 647.512 474.609C647.348 479.357 635.327 474.773 635.327 474.773Z" fill="#CCC2B6"/>
<g style="mix-blend-mode:multiply" opacity="0.6">
<g style="mix-blend-mode:multiply" opacity="0.6">
<path d="M647.43 353.721C648.493 357.895 642.687 358.14 636.226 356.585C632.383 355.603 642.36 361.742 646.694 361.005C648.902 361.005 644.813 452.347 643.668 476.738C645.795 476.738 647.594 476.738 647.594 474.61C647.594 469.862 652.746 362.969 652.828 358.058C652.909 355.849 650.538 354.457 647.43 353.721Z" fill="#BBB0A3"/>
</g>
</g>
<g style="mix-blend-mode:multiply" opacity="0.4">
<path d="M644.977 428.284C644.322 440.561 645.958 374.264 645.958 373.282C645.958 372.3 647.267 407.249 647.185 412.078C647.103 416.907 647.185 368.453 647.185 365.015C646.782 367.726 646.563 370.46 646.531 373.2L645.059 361.496C645.059 361.496 645.549 416.006 644.977 428.284Z" fill="#767662"/>
</g>
<g style="mix-blend-mode:multiply" opacity="0.4">
<path d="M636.962 357.731C636.962 357.731 636.308 443.589 636.308 441.461C636.308 439.333 637.862 359.614 637.862 359.614L638.434 415.352V358.058C638.434 358.058 638.025 358.713 636.962 357.731Z" fill="#767662"/>
</g>
<g style="mix-blend-mode:multiply" opacity="0.4">
<path d="M642.196 404.793C641.705 407.658 640.233 462.087 639.906 476.165H640.806C641.215 459.14 642.605 401.847 642.196 404.793Z" fill="#767662"/>
</g>
<g style="mix-blend-mode:multiply" opacity="0.4">
<path d="M646.122 473.136V445.717L644.895 476.738C645.617 476.747 646.327 476.548 646.94 476.165L648.494 427.056L646.122 473.136Z" fill="#767662"/>
</g>
<g style="mix-blend-mode:multiply" opacity="0.4">
<path d="M638.598 429.02L637.862 422.227L636.799 453.575L638.025 432.458L637.453 475.428L637.535 475.51L640.561 402.829L638.598 429.02Z" fill="#767662"/>
</g>
<g style="mix-blend-mode:multiply" opacity="0.4">
<path d="M641.133 359.941V395.217L642.278 360.432C642.278 360.432 641.624 360.923 641.133 359.941Z" fill="#767662"/>
</g>
<g style="mix-blend-mode:multiply" opacity="0.29">
<path d="M650.211 359.941C650.211 360.678 647.512 423.045 647.757 423.946C648.003 424.846 651.274 359.286 651.274 359.286L650.211 359.941Z" fill="#767662"/>
</g>
<g style="mix-blend-mode:overlay" opacity="0.51">
<path d="M636.962 361.332C636.962 361.332 636.962 468.225 636.962 469.453C636.962 470.681 638.516 471.417 638.843 470.435C639.17 469.453 641.378 364.524 641.378 362.887C641.378 361.25 636.799 359.859 636.962 361.332Z" fill="#F7F8F9"/>
</g>
<path d="M510.038 421.081C576.444 431.394 620.442 427.302 635.981 429.266C638.107 429.266 637.944 448.418 635.981 448.582C593.437 451.518 550.692 448.932 508.811 440.888C505.458 440.561 505.376 420.345 510.038 421.081Z" fill="#CCC2B6"/>
<g style="mix-blend-mode:multiply" opacity="0.4">
<path d="M506.848 425.828C506.848 426.483 506.848 427.138 506.848 427.875C511.183 427.875 536.944 431.067 546.758 431.967C535.881 430.821 510.283 426.483 506.848 425.828Z" fill="#767662"/>
</g>
<g style="mix-blend-mode:multiply" opacity="0.4">
<path d="M554.527 429.266C568.511 430.33 545.531 427.875 520.833 425.337C532.937 427.056 545.367 428.529 554.527 429.266Z" fill="#767662"/>
</g>
<g style="mix-blend-mode:multiply" opacity="0.4">
<path d="M620.933 436.55C620.933 436.55 565.322 438.678 549.456 436.55C533.591 434.422 571.374 442.198 620.933 436.55Z" fill="#767662"/>
</g>
<g style="mix-blend-mode:multiply" opacity="0.4">
<path d="M637.453 441.052C618.807 444.326 581.351 446.045 581.351 446.045C600.045 446.064 618.724 444.971 637.289 442.771C637.371 442.198 637.371 441.625 637.453 441.052Z" fill="#767662"/>
</g>
<g style="mix-blend-mode:multiply" opacity="0.4">
<path d="M518.298 438.433C516.908 438.433 532.773 437.942 535.635 437.942C532.364 437.942 510.529 436.059 508.075 435.732C505.622 435.404 515.599 438.024 515.599 438.024L510.529 439.088C510.529 439.088 547.903 443.671 561.151 444.817C574.4 445.963 519.852 439.006 518.298 438.433Z" fill="#767662"/>
</g>
<g style="mix-blend-mode:multiply" opacity="0.4">
<path d="M536.044 437.942C536.044 437.942 536.12 438.017 536.044 437.942V437.942Z" fill="#767662"/>
</g>
<g style="mix-blend-mode:multiply" opacity="0.4">
<path d="M593.127 430.166C598.28 430.166 585.931 430.739 579.879 431.23C573.827 431.721 602.287 429.839 612.591 429.921C602.778 429.921 566.876 428.529 564.831 428.693C562.787 428.857 587.975 430.084 593.127 430.166Z" fill="#767662"/>
</g>
<g style="mix-blend-mode:multiply" opacity="0.4">
<path d="M637.208 433.931C637.208 433.931 607.603 434.832 601.306 435.241C610.362 434.005 619.482 433.295 628.621 433.113C633.609 433.604 621.424 431.394 617.253 431.23C623.964 431.612 630.636 432.515 637.208 433.931Z" fill="#767662"/>
</g>
<g style="mix-blend-mode:multiply" opacity="0.4">
<path d="M585.195 435.568C585.195 435.568 521.814 433.686 517.235 433.113C517.235 433.113 575.626 433.767 585.195 435.568Z" fill="#767662"/>
</g>
<g style="mix-blend-mode:multiply" opacity="0.4">
<path d="M618.97 440.152C600.148 442.139 581.199 442.659 562.296 441.707C581.181 443.481 600.211 442.958 618.97 440.152Z" fill="#767662"/>
</g>
<g style="mix-blend-mode:multiply" opacity="0.4">
<path d="M508.402 441.134C550.203 449.157 592.864 451.743 635.327 448.827C637.698 448.827 637.862 429.839 635.327 429.511C632.613 429.167 629.883 428.976 627.148 428.938C628.217 429.999 628.87 431.408 628.99 432.91C629.11 434.411 628.689 435.906 627.803 437.123C621.587 447.272 554.2 443.016 529.665 436.141C512.655 431.721 512.655 426.647 519.933 422.636L510.038 421.163C505.376 420.344 505.458 440.561 508.402 441.134Z" fill="#BBB0A3"/>
</g>
<g style="mix-blend-mode:multiply" opacity="0.55">
<path d="M506.603 436.878C506.603 439.251 507.584 440.97 508.402 441.134C550.203 449.157 592.864 451.743 635.327 448.828C635.981 448.828 636.471 447.109 636.799 444.899C593.236 447.789 549.483 445.094 506.603 436.878Z" fill="#887E6F"/>
</g>
<g style="mix-blend-mode:overlay" opacity="0.51">
<path d="M623.959 429.675C590.567 429.955 557.197 427.849 524.104 423.373C521.569 423.373 516.417 425.992 533.754 430.002C551.092 434.013 637.78 436.305 623.959 429.675Z" fill="#F7F8F9"/>
</g>
<path d="M508.402 361.66C576.362 372.873 621.424 369.844 637.289 371.891C639.497 371.891 639.334 390.961 636.799 391.043C593.181 393.351 549.447 390.217 506.603 381.712C503.659 380.976 503.577 360.841 508.402 361.66Z" fill="#CCC2B6"/>
<g style="mix-blend-mode:multiply" opacity="0.4">
<path d="M585.44 371.972C585.44 371.972 528.193 374.264 511.837 371.972C495.481 369.681 534.409 378.193 585.44 371.972Z" fill="#767662"/>
</g>
<g style="mix-blend-mode:multiply" opacity="0.4">
<path d="M505.213 377.211C523.859 380.157 561.233 381.221 561.233 381.221C542.56 381.569 523.882 380.831 505.295 379.011C505.295 378.439 505.213 377.866 505.213 377.211Z" fill="#767662"/>
</g>
<g style="mix-blend-mode:multiply" opacity="0.4">
<path d="M625.513 378.029C626.903 378.029 611.038 380.321 608.175 380.648C611.528 380.648 633.364 379.421 635.817 379.421C638.271 379.421 628.212 378.029 628.212 378.029L633.2 376.392C633.2 376.392 595.581 376.392 582.414 376.883C569.247 377.374 623.959 377.947 625.513 378.029Z" fill="#767662"/>
</g>
<g style="mix-blend-mode:multiply" opacity="0.4">
<path d="M576.935 379.83C582.087 379.83 569.738 380.403 563.686 380.73C557.634 381.058 586.176 379.666 596.808 379.83C587.076 379.421 551.174 378.029 549.129 378.111C547.085 378.193 571.864 379.748 576.935 379.83Z" fill="#767662"/>
</g>
<g style="mix-blend-mode:multiply" opacity="0.4">
<path d="M551.256 385.887C551.256 385.887 582.251 387.196 588.711 387.687C595.172 388.178 565.567 384.986 560.251 385.314C554.936 385.641 567.857 384.004 572.192 383.84C565.177 384.084 558.185 384.768 551.256 385.887Z" fill="#767662"/>
</g>
<g style="mix-blend-mode:multiply" opacity="0.4">
<path d="M637.371 384.004C618.561 385.799 599.64 386.128 580.779 384.986C599.613 386.963 618.617 386.633 637.371 384.004Z" fill="#767662"/>
</g>
<g style="mix-blend-mode:multiply" opacity="0.4">
<path d="M637.289 371.891C634.427 371.891 630.583 371.236 625.922 371.072C626.675 372.137 627.08 373.41 627.08 374.714C627.08 376.019 626.675 377.292 625.922 378.357C619.706 388.424 552.319 383.431 527.784 376.392C511.428 371.727 510.856 366.898 517.153 362.887L508.975 361.66C504.15 360.841 504.231 380.976 507.175 381.549C550.012 390.108 593.747 393.297 637.371 391.043C639.334 390.961 639.497 372.218 637.289 371.891Z" fill="#BBB0A3"/>
</g>
<g style="mix-blend-mode:multiply" opacity="0.55">
<path d="M504.886 377.292C504.886 379.666 505.785 381.385 506.603 381.549C549.44 390.108 593.175 393.297 636.799 391.043C637.616 391.043 638.189 389.16 638.516 386.623C593.757 389.261 548.845 386.125 504.886 377.292Z" fill="#887E6F"/>
</g>
<g style="mix-blend-mode:overlay" opacity="0.51">
<path d="M620.933 372.545C587.438 372.533 553.986 370.126 520.833 365.343C518.298 364.852 512.655 367.798 530.401 372.054C548.148 376.31 634.672 379.257 620.933 372.545Z" fill="#F7F8F9"/>
</g>
<path d="M212.927 470.763C212.927 470.763 212.927 357.404 213.745 342.262C213.745 336.86 231.9 337.76 231.655 344.472C231.41 351.183 225.276 465.279 225.112 470.681C224.949 476.083 212.927 470.763 212.927 470.763Z" fill="#CCC2B6"/>
<g style="mix-blend-mode:multiply" opacity="0.5">
<g style="mix-blend-mode:multiply" opacity="0.5">
<path d="M226.421 339.479C227.32 344.226 221.596 344.472 215.135 342.589C211.291 341.443 221.187 348.564 225.603 347.827C227.811 347.827 222.659 445.144 221.187 473.054C223.313 473.054 225.112 473.054 225.194 470.681C225.194 465.279 231.573 350.201 231.737 344.472C231.737 342.016 229.365 340.789 226.421 339.479Z" fill="#BBB0A3"/>
</g>
</g>
<g style="mix-blend-mode:multiply" opacity="0.4">
<path d="M222.822 425.01C222.086 439.088 224.54 362.969 224.54 361.905C224.54 360.841 225.439 400.865 225.194 406.43C224.949 411.996 226.094 356.421 226.094 352.411C225.678 355.588 225.433 358.784 225.358 361.987L223.967 348.973C223.967 348.973 223.558 410.932 222.822 425.01Z" fill="#767662"/>
</g>
<g style="mix-blend-mode:multiply" opacity="0.4">
<path d="M215.789 343.981C215.789 343.981 213.908 442.198 213.99 440.07C214.072 437.942 216.607 346.109 216.607 346.109V410.032L217.67 344.554C217.67 344.554 216.771 345.045 215.789 343.981Z" fill="#767662"/>
</g>
<g style="mix-blend-mode:multiply" opacity="0.4">
<path d="M220.369 398.082C219.878 401.438 217.916 456.112 217.343 472.4H218.243C218.897 452.838 220.86 394.644 220.369 398.082Z" fill="#767662"/>
</g>
<g style="mix-blend-mode:multiply" opacity="0.4">
<path d="M223.64 468.962V444.981L222.25 473.136C222.988 473.093 223.698 472.837 224.295 472.4L226.339 423.291L223.64 468.962Z" fill="#767662"/>
</g>
<g style="mix-blend-mode:multiply" opacity="0.4">
<path d="M216.444 425.746L215.789 417.562L214.317 453.493L215.871 428.939L214.89 471.745L218.652 395.872L216.444 425.746Z" fill="#767662"/>
</g>
<g style="mix-blend-mode:multiply" opacity="0.4">
<path d="M219.96 346.518L219.388 387.033L220.941 347.091C220.941 347.091 220.369 347.582 219.96 346.518Z" fill="#767662"/>
</g>
<g style="mix-blend-mode:multiply" opacity="0.29">
<path d="M228.956 346.682C228.956 347.418 225.439 418.953 225.685 420.344C225.93 421.736 230.101 346.19 230.101 346.19L228.956 346.682Z" fill="#767662"/>
</g>
<g style="mix-blend-mode:overlay" opacity="0.51">
<path d="M215.626 349.383C215.626 349.383 214.808 464.624 214.726 465.934C214.644 467.243 216.28 468.225 216.607 467.161C216.934 466.097 220.369 353.148 220.369 351.183C220.369 349.219 215.544 347.746 215.626 349.383Z" fill="#F7F8F9"/>
</g>
<path d="M89.6009 359.614C156.416 363.133 200.169 354.621 215.789 355.194C217.997 355.194 218.733 374.019 216.362 374.428C174.302 381.741 131.469 383.529 88.9467 379.748C86.0025 379.503 84.8576 359.368 89.6009 359.614Z" fill="#CCC2B6"/>
<g style="mix-blend-mode:multiply" opacity="0.4">
<path d="M218.243 366.489C199.76 371.727 162.468 377.211 162.468 377.211C181.217 375.321 199.84 372.343 218.243 368.289V366.489Z" fill="#767662"/>
</g>
<g style="mix-blend-mode:multiply" opacity="0.4">
<path d="M199.188 367.553C180.595 371.438 161.728 373.873 142.759 374.837C161.791 374.668 180.735 372.223 199.188 367.553Z" fill="#767662"/>
</g>
<g style="mix-blend-mode:multiply" opacity="0.4">
<path d="M88.9468 379.748C131.469 383.529 174.302 381.741 216.362 374.428C218.734 374.428 217.998 355.276 215.789 355.194C213.581 355.112 210.719 355.194 207.611 355.194C208.77 356.181 209.527 357.56 209.738 359.068C209.949 360.577 209.6 362.111 208.756 363.378C203.113 374.019 135.562 376.72 110.619 372.382C93.363 369.517 93.1994 364.197 100.151 359.614L90.1735 359.122C84.8577 359.368 86.0026 379.502 88.9468 379.748Z" fill="#BBB0A3"/>
</g>
<g style="mix-blend-mode:multiply" opacity="0.55">
<path d="M87.3929 375.737C87.8836 378.029 88.5378 379.748 89.3556 379.748C131.878 383.529 174.711 381.741 216.771 374.428C217.425 374.428 217.834 372.627 218.079 370.417C174.923 377.775 131.003 379.563 87.3929 375.737Z" fill="#887E6F"/>
</g>
<path d="M86.4115 419.199C154.781 422.8 199.678 414.288 215.626 414.943C217.834 414.943 218.652 433.686 216.198 434.013C173.099 441.143 129.275 442.82 85.7573 439.006C82.7314 439.006 81.5864 418.953 86.4115 419.199Z" fill="#CCC2B6"/>
<g style="mix-blend-mode:multiply" opacity="0.4">
<path d="M204.176 422.636C205.648 422.636 189.865 426.647 187.084 427.22L214.563 422.636C217.261 422.636 206.957 422.145 206.957 422.145L211.782 419.935C211.782 419.935 174.244 424.273 161.078 426.156C147.911 428.038 202.622 422.636 204.176 422.636Z" fill="#767662"/>
</g>
<g style="mix-blend-mode:multiply" opacity="0.4">
<path d="M216.362 426.974C197.769 430.859 178.902 433.295 159.933 434.259C178.965 434.09 197.909 431.644 216.362 426.974Z" fill="#767662"/>
</g>
<g style="mix-blend-mode:multiply" opacity="0.4">
<path d="M215.626 414.943C212.763 414.943 208.92 414.943 204.258 414.943C205.007 416.024 205.409 417.309 205.409 418.626C205.409 419.942 205.007 421.227 204.258 422.309C198.615 432.949 131.146 435.568 106.121 431.312C89.7646 428.529 88.7014 423.864 94.7532 419.117H86.5751C81.75 419.117 82.8949 438.842 85.9209 439.088C129.581 442.882 173.544 441.15 216.771 433.931C218.652 433.686 218.243 415.024 215.626 414.943Z" fill="#BBB0A3"/>
</g>
<g style="mix-blend-mode:multiply" opacity="0.55">
<path d="M83.7128 435.159C84.2035 437.451 84.8577 439.088 85.7573 439.17C129.417 442.964 173.381 441.232 216.607 434.013C217.343 434.013 217.834 432.049 218.079 429.43C173.727 437.148 128.561 439.074 83.7128 435.159Z" fill="#887E6F"/>
</g>
<g style="mix-blend-mode:overlay" opacity="0.51">
<path d="M199.351 417.48C166.117 421.125 132.669 422.438 99.2512 421.408C96.7978 421.408 91.7273 424.764 109.228 427.056C126.73 429.348 213.499 422.636 199.351 417.48Z" fill="#F7F8F9"/>
</g>
<rect x="722" width="557" height="531"/>
<defs>
<linearGradient id="paint0_linear_305_1496" x1="693.636" y1="281.367" x2="728.122" y2="671.612" gradientUnits="userSpaceOnUse">
<stop stop-color="#FFE484"/>
<stop offset="0.04" stop-color="#F6D87E"/>
<stop offset="0.21" stop-color="#CEA764"/>
<stop offset="0.38" stop-color="#AD7E4E"/>
<stop offset="0.55" stop-color="#935E3D"/>
<stop offset="0.71" stop-color="#814731"/>
<stop offset="0.87" stop-color="#763A29"/>
<stop offset="1" stop-color="#723527"/>
</linearGradient>
<linearGradient id="paint1_linear_305_1496" x1="-99.2316" y1="509.313" x2="1530.83" y2="509.313" gradientUnits="userSpaceOnUse">
<stop stop-color="#D19521"/>
<stop offset="1" stop-color="#EBAE3C"/>
</linearGradient>
<linearGradient id="paint2_linear_305_1496" x1="-15114.1" y1="4444.13" x2="308226" y2="4444.13" gradientUnits="userSpaceOnUse">
<stop stop-color="#D19521"/>
<stop offset="1" stop-color="#EBAE3C"/>
</linearGradient>
</defs>
</svg>
