<svg width="25" height="24" viewBox="0 0 25 24" fill="none" xmlns="http://www.w3.org/2000/svg">
<path d="M6.89996 8.5H2.89996C2.62382 8.5 2.39996 8.72386 2.39996 9V22C2.39996 22.2761 2.62382 22.5 2.89996 22.5H6.89996C7.17611 22.5 7.39996 22.2761 7.39996 22V9C7.39996 8.72386 7.17611 8.5 6.89996 8.5Z" fill="white"/>
<path d="M4.87996 6.5C6.24963 6.5 7.35996 5.38071 7.35996 4C7.35996 2.61929 6.24963 1.5 4.87996 1.5C3.5103 1.5 2.39996 2.61929 2.39996 4C2.39996 5.38071 3.5103 6.5 4.87996 6.5Z" fill="white"/>
<path d="M18.9 22.4999H21.9C22.0326 22.4999 22.1597 22.4472 22.2535 22.3534C22.3473 22.2597 22.4 22.1325 22.4 21.9999V13.5999C22.4 9.82988 20.27 7.99988 17.29 7.99988C16.7022 7.97839 16.1164 8.08029 15.5704 8.29903C15.0244 8.51778 14.5303 8.8485 14.12 9.26988C14.0652 9.33321 13.9923 9.37822 13.9111 9.39889C13.83 9.41955 13.7444 9.41486 13.666 9.38545C13.5876 9.35605 13.5201 9.30334 13.4725 9.2344C13.4249 9.16547 13.3996 9.08363 13.4 8.99988C13.4 8.86728 13.3473 8.7401 13.2535 8.64633C13.1597 8.55256 13.0326 8.49988 12.9 8.49988H9.89996C9.76736 8.49988 9.64018 8.55256 9.54641 8.64633C9.45264 8.7401 9.39996 8.86728 9.39996 8.99988V21.9999C9.39996 22.1325 9.45264 22.2597 9.54641 22.3534C9.64018 22.4472 9.76736 22.4999 9.89996 22.4999H12.9C13.0326 22.4999 13.1597 22.4472 13.2535 22.3534C13.3473 22.2597 13.4 22.1325 13.4 21.9999V14.4999C13.4 13.8368 13.6634 13.201 14.1322 12.7321C14.601 12.2633 15.2369 11.9999 15.9 11.9999C16.563 11.9999 17.1989 12.2633 17.6677 12.7321C18.1366 13.201 18.4 13.8368 18.4 14.4999V21.9999C18.4 22.1325 18.4526 22.2597 18.5464 22.3534C18.6402 22.4472 18.7674 22.4999 18.9 22.4999Z" fill="white"/>
</svg>
