<svg width="370" height="130" viewBox="0 0 370 130" fill="none" xmlns="http://www.w3.org/2000/svg">
<path d="M325.49 -7.24005C321.32 1.42995 319.49 11.1799 321.14 20.6099C323.5 33.9599 333.61 46.1299 346.84 49.0699C350.599 50.0457 354.564 49.868 358.22 48.5599C363.32 46.4899 366.87 41.3999 367.86 35.9799C369.91 24.8299 361.74 13.6999 351.39 9.05995C341.04 4.41995 329.14 4.94995 317.93 6.64995C296.93 9.81995 274.14 18.9599 266.34 38.6499C264.34 43.6499 263.56 49.3299 265.71 54.2099C267.86 59.0899 273.71 62.5399 278.71 60.6999C282.95 59.1399 285.32 54.3999 285.51 49.8899C285.97 39.1899 276.15 30.1099 265.62 28.2399C255.09 26.3699 244.31 30.1299 234.83 35.1299C225.35 40.1299 216.48 46.3399 206.47 50.1299C185.64 57.9799 161.86 54.1799 141.64 44.8599C130.74 39.8599 120.15 32.8599 114.32 22.3799C108.49 11.8999 108.81 -2.74006 117.64 -10.8701C129.83 -22.0801 151.64 -14.3501 158.87 0.559946C166.1 15.4699 161.98 33.5599 154.18 48.1999C143.04 69.0599 123.04 86.5999 99.49 88.6199C75.94 90.6399 50.65 72.8399 49.86 49.2099C49.578 45.1301 50.444 41.0529 52.36 37.4399C58.1 27.5999 73.67 27.4999 82.08 35.1899C90.49 42.8799 92.73 55.3699 91.64 66.6999C90.4739 77.7787 86.6727 88.4173 80.5541 97.7266C74.4355 107.036 66.1774 114.745 56.47 120.21C47.8506 124.856 38.3525 127.642 28.5893 128.387C18.8261 129.133 9.015 127.823 -0.210022 124.54" stroke="#BEEDE8" stroke-width="2" stroke-miterlimit="10" stroke-dasharray="7.98 7.98"/>
</svg>
