<svg width="25" height="24" viewBox="0 0 25 24" fill="none" xmlns="http://www.w3.org/2000/svg">
<g clip-path="url(#clip0_320_387)">
<path d="M23.82 6.44006C23.8911 6.38091 23.9445 6.30318 23.9741 6.21552C24.0037 6.12786 24.0084 6.0337 23.9877 5.94352C23.9669 5.85335 23.9216 5.77069 23.8567 5.70476C23.7918 5.63882 23.7098 5.59219 23.62 5.57006L22.83 5.37006C22.7581 5.35208 22.6912 5.31836 22.634 5.27135C22.5768 5.22435 22.5307 5.16522 22.4991 5.09824C22.4676 5.03126 22.4513 4.9581 22.4514 4.88405C22.4516 4.81001 22.4681 4.73691 22.5 4.67006L22.94 3.78006C22.9815 3.69382 22.9975 3.59745 22.9859 3.50242C22.9743 3.40739 22.9357 3.31768 22.8746 3.24397C22.8135 3.17025 22.7325 3.11561 22.6413 3.08656C22.5501 3.0575 22.4524 3.05525 22.36 3.08006L20.36 3.64006C20.2855 3.66179 20.2069 3.66588 20.1305 3.65199C20.0542 3.63811 19.9821 3.60663 19.92 3.56006C19.0545 2.91095 18.0018 2.56006 16.92 2.56006C15.5939 2.56006 14.3221 3.08684 13.3844 4.02452C12.4468 4.96221 11.92 6.23398 11.92 7.56006V7.92006C11.9204 7.98148 11.8982 8.04091 11.8577 8.08702C11.8171 8.13313 11.761 8.16269 11.7 8.17006C8.88998 8.50006 6.19998 7.07006 3.29998 3.73006C3.23698 3.66058 3.15605 3.60982 3.06607 3.58335C2.97609 3.55689 2.88056 3.55575 2.78998 3.58006C2.70838 3.61757 2.63838 3.67636 2.58735 3.75027C2.53632 3.82417 2.50614 3.91046 2.49998 4.00006C2.09944 5.6454 2.26138 7.37748 2.95998 8.92006C2.98065 8.96097 2.98967 9.00678 2.98606 9.05248C2.98245 9.09818 2.96635 9.142 2.93951 9.17916C2.91267 9.21632 2.87613 9.24539 2.83389 9.26319C2.79164 9.28098 2.74532 9.28682 2.69998 9.28006L1.57998 9.06006C1.50044 9.04727 1.41899 9.05389 1.34256 9.07936C1.26613 9.10482 1.19699 9.14838 1.14101 9.20631C1.08504 9.26425 1.0439 9.33486 1.02108 9.41212C0.998266 9.48938 0.994458 9.57101 1.00998 9.65006C1.09632 10.4175 1.35415 11.1557 1.7644 11.81C2.17464 12.4643 2.7268 13.018 3.37998 13.4301C3.42225 13.4505 3.45789 13.4825 3.48284 13.5223C3.50778 13.5621 3.52101 13.6081 3.52101 13.6551C3.52101 13.702 3.50778 13.748 3.48284 13.7878C3.45789 13.8276 3.42225 13.8596 3.37998 13.8801L2.84998 14.0901C2.78561 14.1159 2.72732 14.1548 2.6788 14.2043C2.63028 14.2539 2.5926 14.313 2.56815 14.3778C2.5437 14.4427 2.53301 14.512 2.53677 14.5812C2.54053 14.6505 2.55865 14.7182 2.58998 14.7801C2.88307 15.4214 3.32734 15.9821 3.88468 16.414C4.44202 16.8459 5.09581 17.1363 5.78998 17.2601C5.83824 17.2776 5.87994 17.3095 5.90941 17.3516C5.93888 17.3936 5.95469 17.4437 5.95469 17.4951C5.95469 17.5464 5.93888 17.5965 5.90941 17.6385C5.87994 17.6806 5.83824 17.7125 5.78998 17.7301C4.43034 18.2924 2.97124 18.5747 1.49998 18.5601C1.36737 18.5335 1.22966 18.5608 1.11714 18.6358C1.00462 18.7108 0.926501 18.8274 0.89998 18.9601C0.873458 19.0927 0.900701 19.2304 0.975716 19.3429C1.05073 19.4554 1.16737 19.5335 1.29998 19.5601C3.84752 20.7683 6.62116 21.4259 9.43998 21.4901C11.9194 21.5279 14.3548 20.8321 16.44 19.4901C18.1552 18.3451 19.5605 16.7936 20.5306 14.9737C21.5007 13.1539 22.0055 11.1223 22 9.06006V8.19006C22.0006 8.11745 22.017 8.04584 22.0481 7.98022C22.0792 7.91459 22.1242 7.85653 22.18 7.81006L23.82 6.44006Z" fill="white"/>
</g>
<defs>
<clipPath id="clip0_320_387">
<rect width="24" height="24" fill="white" transform="translate(0.499985)"/>
</clipPath>
</defs>
</svg>
