<svg width="25" height="24" viewBox="0 0 25 24" fill="none" xmlns="http://www.w3.org/2000/svg">
<g clip-path="url(#clip0_320_376)">
<path d="M12.8 0.0900879C9.63293 0.0899988 6.59424 1.34192 4.34637 3.57293C2.09851 5.80394 0.823747 8.83311 0.799994 12.0001C0.797474 14.4235 1.545 16.7884 2.93999 18.7701L1.58999 22.7701C1.56087 22.8579 1.55666 22.952 1.57785 23.0421C1.59903 23.1321 1.64478 23.2145 1.70999 23.2801C1.77515 23.3461 1.85707 23.3931 1.94693 23.416C2.03679 23.4389 2.1312 23.4368 2.21999 23.4101L6.41999 22.0801C8.22992 23.2163 10.3104 23.8486 12.4465 23.9116C14.5826 23.9746 16.6968 23.466 18.5706 22.4384C20.4443 21.4108 22.0096 19.9015 23.1048 18.0664C24.1999 16.2313 24.7852 14.1371 24.8 12.0001C24.7762 8.83311 23.5015 5.80394 21.2536 3.57293C19.0057 1.34192 15.9671 0.0899988 12.8 0.0900879ZM20 16.8101C19.6653 17.4467 19.1614 17.9786 18.5439 18.3473C17.9264 18.716 17.2192 18.9073 16.5 18.9001C15.3019 18.7634 14.1355 18.4253 13.05 17.9001C10.6138 16.7849 8.5487 14.994 7.09999 12.7401C5.18999 10.2101 5.09999 7.84009 6.93999 5.88009C7.18521 5.64866 7.48097 5.47755 7.80384 5.38035C8.1267 5.28314 8.46777 5.26251 8.79999 5.32009C9.05883 5.35085 9.30561 5.44681 9.51724 5.59897C9.72887 5.75114 9.89842 5.95452 10.01 6.19009L10.39 7.11009C10.67 7.78009 10.97 8.50009 11.02 8.62009C11.099 8.77492 11.1402 8.94626 11.1402 9.12009C11.1402 9.29391 11.099 9.46526 11.02 9.62009C10.7648 10.129 10.4269 10.5919 10.02 10.9901C10.5337 11.7719 11.1342 12.4932 11.81 13.1401C12.6168 13.8401 13.541 14.3919 14.54 14.7701C14.82 14.4101 15.37 13.7701 15.54 13.5001C15.6734 13.2784 15.8875 13.117 16.1374 13.0499C16.3873 12.9827 16.6535 13.0151 16.88 13.1401C17.26 13.2801 19.39 14.3201 19.39 14.3201C19.6605 14.4118 19.8974 14.5825 20.07 14.8101C20.235 15.1202 20.3154 15.4684 20.3031 15.8195C20.2908 16.1706 20.1863 16.5122 20 16.8101Z" fill="white"/>
</g>
<defs>
<clipPath id="clip0_320_376">
<rect width="24" height="24" fill="white" transform="translate(0.799988)"/>
</clipPath>
</defs>
</svg>
